<svg width="26" height="22" viewBox="0 0 26 22" fill="none" xmlns="http://www.w3.org/2000/svg">
<path d="M26 2.67562C25.0434 3.09769 24.0153 3.38194 22.9363 3.51006C24.0381 2.85435 24.8842 1.81533 25.2818 0.577127C24.2515 1.18439 23.1097 1.62583 21.8942 1.86379C20.9224 0.833382 19.5347 0.189514 18.0007 0.189514C14.5567 0.189514 12.0261 3.38301 12.8039 6.69818C8.372 6.47745 4.44167 4.36712 1.81025 1.15962C0.41275 3.54236 1.0855 6.65942 3.46017 8.23786C2.587 8.20987 1.76367 7.97192 1.04542 7.57461C0.986917 10.0306 2.75817 12.3283 5.3235 12.8397C4.57275 13.0421 3.7505 13.0895 2.91417 12.9301C3.59233 15.0362 5.56183 16.5683 7.8975 16.6114C5.655 18.3589 2.82967 19.1395 0 18.8078C2.36058 20.312 5.16533 21.1895 8.177 21.1895C18.0808 21.1895 23.6763 12.8763 23.3382 5.42013C24.3804 4.67182 25.285 3.73832 26 2.67562Z" fill="white"/>
</svg>
