<svg width="25" height="24" viewBox="0 0 25 24" fill="none" xmlns="http://www.w3.org/2000/svg">
<path d="M12.6392 0.189514C6.01276 0.189514 0.63916 5.33921 0.63916 11.6895C0.63916 18.0398 6.01276 23.1895 12.6392 23.1895C19.2656 23.1895 24.6392 18.0398 24.6392 11.6895C24.6392 5.33921 19.268 0.189514 12.6392 0.189514ZM6.55996 12.0759L6.61036 11.9977L9.73276 7.31721C9.77836 7.25051 9.88636 7.25741 9.91996 7.33101C10.4408 8.45111 10.892 9.84491 10.6808 10.712C10.592 11.0685 10.3448 11.5515 10.0664 11.9977C10.0304 12.0621 9.99196 12.1265 9.94876 12.1886C9.92956 12.2162 9.89596 12.2323 9.85996 12.2323H6.65116C6.56476 12.2323 6.51436 12.1426 6.55996 12.0759ZM20.4728 13.6859C20.4728 13.7296 20.4464 13.7664 20.408 13.7825C20.1656 13.8814 19.3376 14.2471 18.9944 14.7048C18.116 15.8755 17.4464 17.5499 15.9464 17.5499H9.69196C7.47436 17.5499 5.67916 15.8226 5.67916 13.6905V13.6215C5.67916 13.5663 5.72716 13.5203 5.78716 13.5203H9.27196C9.34156 13.5203 9.39196 13.5801 9.38716 13.6468C9.36076 13.863 9.40396 14.0861 9.51196 14.2885C9.71836 14.691 10.148 14.9417 10.6112 14.9417H12.3368V13.6514H10.6304C10.544 13.6514 10.4912 13.5548 10.5416 13.4858C10.5608 13.4582 10.58 13.4306 10.604 13.3984C10.7648 13.1776 10.9952 12.8372 11.2256 12.4485C11.3816 12.1863 11.5328 11.9057 11.6552 11.6251C11.6792 11.5745 11.6984 11.5216 11.72 11.471C11.7536 11.3813 11.7872 11.2962 11.8112 11.2134C11.8352 11.1421 11.8568 11.0685 11.876 10.9995C11.9336 10.7603 11.9576 10.5073 11.9576 10.2451C11.9576 10.1416 11.9528 10.0335 11.9432 9.93231C11.9384 9.81961 11.924 9.70691 11.9096 9.59421C11.9 9.49531 11.8808 9.39641 11.8616 9.29521C11.8352 9.14571 11.8016 8.99621 11.7632 8.84671L11.7488 8.78922C11.72 8.68571 11.6936 8.58912 11.66 8.48561C11.5616 8.16361 11.4512 7.84851 11.3312 7.55411C11.288 7.43681 11.24 7.32411 11.1896 7.21371C11.1176 7.04351 11.0432 6.88941 10.976 6.74451C10.94 6.67781 10.9112 6.61801 10.8824 6.55591C10.8488 6.48691 10.8152 6.41791 10.7792 6.35121C10.7552 6.30061 10.7264 6.25231 10.7072 6.20631L10.496 5.83371C10.4672 5.78311 10.5152 5.72101 10.5728 5.73711L11.8928 6.07981H11.8976C11.9 6.07981 11.9 6.07981 11.9024 6.07981L12.0752 6.12811L12.2672 6.17871L12.3368 6.19711V5.44731C12.3368 5.08391 12.6392 4.78951 13.016 4.78951C13.2032 4.78951 13.3736 4.86311 13.4936 4.98271C13.616 5.10231 13.6928 5.26561 13.6928 5.44731V6.56281L13.8344 6.59961C13.844 6.60421 13.856 6.60881 13.8656 6.61571C13.8992 6.63871 13.9496 6.67551 14.012 6.72151C14.0624 6.75831 14.1152 6.80431 14.1776 6.85261C14.3048 6.95151 14.4584 7.07801 14.624 7.22291C14.6672 7.25971 14.7104 7.29651 14.7512 7.33561C14.9648 7.52651 15.2048 7.74961 15.4352 7.99801C15.5 8.06931 15.5624 8.13831 15.6272 8.21421C15.6896 8.29011 15.7592 8.36371 15.8168 8.43731C15.896 8.53621 15.9776 8.63971 16.052 8.74781C16.0856 8.79841 16.1264 8.85131 16.1576 8.90191C16.2536 9.03761 16.3352 9.17791 16.4144 9.31821C16.448 9.38262 16.4816 9.45391 16.5104 9.52291C16.5992 9.71151 16.6688 9.90242 16.712 10.0956C16.7264 10.137 16.736 10.1807 16.7408 10.2221V10.2313C16.7552 10.2865 16.76 10.3463 16.7648 10.4084C16.784 10.6039 16.7744 10.8017 16.7312 10.9995C16.712 11.0823 16.688 11.1605 16.6592 11.2456C16.628 11.3261 16.5992 11.4089 16.5608 11.4894C16.4864 11.6527 16.4 11.8183 16.2968 11.9701C16.2632 12.0276 16.2224 12.0874 16.184 12.1449C16.1408 12.2047 16.0952 12.2622 16.0568 12.3174C16.0016 12.3887 15.944 12.4623 15.884 12.529C15.8312 12.598 15.7784 12.667 15.7184 12.7291C15.6368 12.8234 15.5576 12.9108 15.4736 12.9959C15.4256 13.0511 15.3728 13.1086 15.3176 13.1592C15.2648 13.2167 15.2096 13.2673 15.1616 13.3133C15.0776 13.3938 15.0104 13.4536 14.9528 13.5065L14.816 13.6238C14.7968 13.6422 14.7704 13.6514 14.744 13.6514H13.6928V14.9417H15.0152C15.3104 14.9417 15.5912 14.8428 15.8192 14.6565C15.896 14.5921 16.2344 14.3115 16.6352 13.8883C16.6496 13.8722 16.6664 13.863 16.6856 13.8584L20.336 12.8464C20.4056 12.828 20.4728 12.8763 20.4728 12.9453V13.6859Z" fill="white"/>
</svg>
