<svg width="145" height="40" viewBox="0 0 145 40" fill="none" xmlns="http://www.w3.org/2000/svg">
<path d="M57.3664 6.18457C60.2401 6.18457 62.2057 7.73136 63.2634 10.8249C63.4325 11.2617 63.5093 11.7289 63.4891 12.1969V15.1353C63.3386 15.845 62.9836 16.1999 62.4239 16.1999H59.3772C58.956 15.9467 58.7453 15.5256 58.7453 14.9364V13.6525L58.8536 13.0219C58.6626 11.5527 58.0314 10.8182 56.9602 10.8182C56.1327 10.8182 55.64 11.3418 55.482 12.3891V28.4371C55.482 29.3879 56.0086 29.9839 57.0618 30.2249H57.1701C58.3015 30.0939 58.8664 29.5341 58.8649 28.5456V28.3195C58.8649 27.5134 58.8288 26.2853 58.7566 24.6353C58.6772 24.5011 58.5705 24.3853 58.4433 24.2953C58.3161 24.2053 58.1714 24.1432 58.0186 24.1131C57.5974 23.7877 57.3867 22.9385 57.3867 21.5658V20.9329C57.3867 20.3679 57.7726 19.8796 58.54 19.4705C59.4908 19.5323 60.1942 19.5624 60.65 19.5609H60.8757C61.2729 19.5609 61.8318 19.5308 62.5525 19.4705C63.1889 19.6762 63.5094 19.9881 63.5094 20.4108V33.9183C63.5094 34.5436 63.0821 34.8932 62.2275 34.967H59.6751C59.5348 34.9758 59.3944 34.9508 59.2656 34.8942C59.1368 34.8376 59.0234 34.7509 58.9349 34.6415C58.3002 34.8749 57.627 34.9853 56.9512 34.967C53.8504 34.967 51.7771 33.1731 50.7315 29.5853C50.8037 28.5305 50.8398 27.7597 50.8398 27.273V25.1597C50.838 24.526 50.8019 23.893 50.7315 23.2633L50.8398 22.8293C50.7676 21.9523 50.7315 21.4287 50.7315 21.2584C50.7315 20.4402 50.7676 19.4894 50.8398 18.4059C50.7676 17.1281 50.7315 16.285 50.7315 15.8767C50.8037 14.3849 50.8398 13.5064 50.8398 13.2412C50.7676 12.5179 50.7315 11.9581 50.7315 11.5618C51.7034 7.97547 53.9151 6.18306 57.3664 6.18457ZM52.2097 27.5849V27.9082H52.318C52.4489 27.9082 52.5166 27.8358 52.5166 27.6934L52.318 27.5849H52.2097ZM52.7333 14.8347V14.9432H53.0379V14.8347H52.7333ZM53.2546 14.6086V14.7171H53.4803V14.6086H53.2546ZM53.3629 16.505V16.8305C53.3939 16.8367 53.4259 16.8351 53.4561 16.826C53.4863 16.8168 53.5138 16.8003 53.5361 16.778C53.5584 16.7556 53.5749 16.7281 53.5841 16.6978C53.5932 16.6675 53.5948 16.6355 53.5886 16.6045L53.3629 16.505ZM53.3629 21.0369V21.2629C53.3939 21.2691 53.4259 21.2676 53.4561 21.2584C53.4863 21.2492 53.5138 21.2327 53.5361 21.2104C53.5584 21.188 53.5749 21.1605 53.5841 21.1302C53.5932 21.1 53.5948 21.0679 53.5886 21.0369H53.3629ZM53.5886 18.0985V18.2997H53.6789V18.1008L53.5886 18.0985ZM54.3198 29.6011V29.9243H54.5184V29.6011H54.3198ZM54.5184 9.35575V9.58178C54.6331 9.59493 54.7437 9.63188 54.8434 9.69027V9.23595C54.7437 9.29434 54.6331 9.3313 54.5184 9.34445V9.35575ZM54.8434 9.98637V10.2124H54.9494V9.98637H54.8434ZM55.0397 9.77164V9.88014H55.2654V9.77164H55.0397ZM55.0397 31.9224C55.0408 31.9506 55.0476 31.9782 55.0597 32.0036C55.0718 32.029 55.0889 32.0517 55.11 32.0703C55.1311 32.0889 55.1557 32.103 55.1825 32.1118C55.2092 32.1205 55.2374 32.1238 55.2654 32.1213H55.3737V31.9224H55.0397ZM55.2654 32.7542V32.9802H55.3737V32.7542H55.2654ZM55.8973 32.4468V32.7542H56.5292V32.5553L55.8973 32.4468ZM56.5292 32.1213V32.3474H56.8541C56.8603 32.3163 56.8588 32.2843 56.8496 32.254C56.8405 32.2238 56.824 32.1962 56.8017 32.1739C56.7794 32.1515 56.7519 32.135 56.7217 32.1259C56.6914 32.1167 56.6594 32.1151 56.6285 32.1213H56.5292ZM57.1588 31.3822V31.4884C57.1829 31.6391 57.2581 31.7145 57.3845 31.7145H57.6102V31.3913L57.1588 31.3822ZM57.2671 32.1213L57.1588 32.3474L57.3845 32.4559H57.4928V32.3474C57.5005 32.3151 57.4997 32.2814 57.4905 32.2496C57.4814 32.2178 57.4642 32.1888 57.4405 32.1656C57.4169 32.1424 57.3877 32.1257 57.3557 32.1172C57.3238 32.1086 57.2901 32.1085 57.2581 32.1168L57.2671 32.1213ZM57.7907 9.67445V9.76486H58.0164V9.67445H57.7907ZM58.4226 8.93308V9.13198H58.5287V8.93308H58.4226ZM58.7453 9.76486L59.1606 9.87336V9.56596H58.9349C58.804 9.58404 58.7363 9.65185 58.7363 9.76034L58.7453 9.76486ZM59.4855 31.5969C59.4855 32.0927 59.2388 32.3398 58.7453 32.3383V32.4468C58.8424 32.4468 58.9439 32.5485 59.0522 32.7542C59.5465 32.6344 59.7925 32.4943 59.7925 32.3383C59.7252 32.0968 59.6888 31.8477 59.6841 31.5969H59.4855ZM59.788 11.4578V11.6567H60.0136V11.4578H59.788ZM59.788 30.8533V31.0793H59.8963V30.8533H59.788ZM59.8963 10.6079V10.7164C59.9188 10.8671 59.9941 10.9425 60.122 10.9425C60.2498 10.9425 60.3153 10.8671 60.3183 10.7164V10.6147L59.8963 10.6079ZM59.8963 23.5752V23.6837H60.122V23.5752H59.8963ZM60.0046 29.2824V29.4813H60.1129V29.2824H60.0046ZM60.3093 23.1593L60.2213 23.6837H60.6342L60.5259 23.1593H60.3093ZM60.2213 25.9055C60.2333 26.0366 60.2987 26.1022 60.4176 26.1022C60.734 26.0495 61.0538 26.0201 61.3745 26.014V25.9055L61.2661 25.6795L61.0405 25.788L60.7335 25.562C60.5094 25.791 60.3371 25.9055 60.2168 25.9055H60.2213ZM60.2213 28.9569V29.2824H60.3093V28.9569H60.2213ZM60.2213 31.0703V31.4839H60.4176V31.3777C60.3586 31.2848 60.3216 31.1797 60.3093 31.0703H60.2213ZM60.3093 13.0287V13.1372C60.3093 13.2321 60.5214 13.3768 60.9412 13.5689V13.4627C60.9412 13.3542 60.8035 13.2095 60.5259 13.0287H60.3093ZM60.3093 30.1119V30.2204C60.3333 30.3711 60.4086 30.4465 60.535 30.4465H60.7606C60.7606 30.3493 60.6523 30.243 60.4357 30.121L60.3093 30.1119ZM60.4176 10.0836V10.1921L60.5259 10.7164H61.0495V10.6147L60.4176 10.0836ZM60.4176 21.8958V22.1218C60.4176 22.2168 60.5259 22.3207 60.7426 22.4292L60.9412 22.1218L60.6342 21.8958H60.4176ZM60.4176 28.9569V29.0654H60.7426V28.9569H60.4176ZM60.5259 31.9179V32.3338H60.8509C60.9592 32.3338 61.0969 32.1959 61.2661 31.9179C61.2723 31.8869 61.2708 31.8548 61.2616 31.8246C61.2525 31.7943 61.236 31.7668 61.2137 31.7444C61.1914 31.7221 61.1639 31.7056 61.1336 31.6964C61.1034 31.6872 61.0714 31.6857 61.0405 31.6919C60.8894 31.8102 60.7108 31.8879 60.5214 31.9179H60.5259ZM60.8509 24.4228V24.6488H60.9412V24.4228H60.8509ZM60.8509 29.696C60.8509 29.8407 60.9299 29.9221 61.0495 29.9221V29.696H60.8509ZM60.9412 28.0167V28.4325H61.1668V28.2065C61.1533 28.0845 61.0811 28.0189 60.9367 28.0189L60.9412 28.0167ZM61.0495 22.8338V23.3763H61.2752V22.8338H61.0495ZM61.0495 24.1177V24.3166H61.4828C61.4828 24.1832 61.4106 24.1177 61.2571 24.1177H61.0495Z" fill="white"/>
<path d="M68.9798 6.07416C70.9251 6.07416 71.8986 6.53149 71.9001 7.44615L77.5804 26.4619H77.9956L77.6706 26.0279C77.6678 25.8827 77.7053 25.7395 77.779 25.6143C77.6719 25.4579 77.6038 25.2781 77.5804 25.0899C77.8918 25.0899 78.6907 22.679 79.9771 17.857C80.3382 16.9062 80.9031 14.9073 81.6719 11.8605C82.6829 8.21239 83.3803 6.38834 83.7639 6.38834C84.1306 6.2407 84.5246 6.17364 84.9194 6.19169H86.5962C87.4387 6.38457 87.8593 6.76957 87.8577 7.3467V33.5954C87.8577 34.51 87.4733 34.9681 86.7045 34.9696H84.1792C83.4089 34.9696 83.0245 34.4422 83.026 33.3874L83.1343 32.3409V31.0774C83.1326 30.4438 83.0964 29.8107 83.026 29.181C83.0614 28.8593 83.1372 28.5434 83.2517 28.2408C83.2121 27.1096 83.1036 25.9818 82.9267 24.8639C82.9267 24.4548 83.0711 24.2491 83.36 24.2491V24.1429C83.0711 24.1429 82.9267 24.0344 82.9267 23.8174V23.293L82.4031 23.1845C82.4753 22.8364 82.5476 22.6601 82.6288 22.6601C82.565 22.402 82.4549 22.1577 82.3038 21.9391V21.8306C82.3279 21.6799 82.4031 21.6046 82.5295 21.6046C82.6799 21.6046 82.7883 21.8871 82.8545 22.4522C83.0046 22.6191 83.1816 22.7597 83.378 22.8681L83.791 22.5426C83.8881 22.5426 83.9896 22.6511 84.0979 22.8681L83.8994 23.1755C84.059 23.3323 84.1985 23.5084 84.3146 23.6998V23.9259L84.2063 24.1519L84.432 24.2581C84.7795 24.0909 84.9555 23.9101 84.9555 23.7179L84.8472 23.1935C84.9194 23.1935 84.9555 23.1642 84.9555 23.1031C84.3898 23.1031 84.107 22.6096 84.107 21.6226H84.3868V21.3153L83.8632 21.4057L83.5383 20.9898L83.9716 20.4676C83.9126 20.3748 83.8755 20.2696 83.8632 20.1602L84.1702 19.6359C84.1554 19.6382 84.1403 19.637 84.1261 19.6323C84.1119 19.6277 84.099 19.6198 84.0885 19.6092C84.0779 19.5986 84.07 19.5857 84.0654 19.5715C84.0607 19.5573 84.0595 19.5421 84.0618 19.5274L84.4951 19.0934L84.6937 19.2019L84.5854 19.4279V19.8438C84.8172 19.835 85.0435 19.916 85.2173 20.0698C85.316 20.0112 85.426 19.9743 85.54 19.9613V19.5454C85.3482 19.5454 85.1744 19.3714 85.0187 19.0211V18.065L85.1271 17.8661L83.9716 16.6026V16.7111L84.0618 17.9565L84.2875 17.8661C84.6351 18.0469 84.8111 18.1848 84.8111 18.2819C84.8173 18.313 84.8157 18.345 84.8066 18.3753C84.7974 18.4055 84.781 18.4331 84.7586 18.4554C84.7363 18.4778 84.7088 18.4943 84.6786 18.5034C84.6484 18.5126 84.6164 18.5142 84.5854 18.508H84.4951L83.8632 17.9655C83.9372 17.8396 83.9747 17.6956 83.9716 17.5496C83.7749 17.5439 83.5856 17.4741 83.4322 17.3507C83.3254 17.6772 83.1863 17.9922 83.017 18.291L82.4934 17.9655H82.2677V18.1915L82.8093 18.6074L83.0079 18.517H83.1163C83.211 18.517 83.3148 18.6187 83.4232 18.8244C82.6709 19.3789 82.2858 19.7639 82.2677 19.9794L82.4934 20.0879H82.7191C83.3434 19.7157 83.6556 19.4686 83.6556 19.3465H83.8813V19.5726C83.2449 20.3433 82.8229 20.7298 82.6198 20.7298C82.4693 20.7298 82.3941 20.6937 82.3941 20.6213C82.2858 20.5071 82.2163 20.3616 82.1955 20.2055H82.0872C82.095 20.2619 82.0897 20.3194 82.0717 20.3735C82.0536 20.4276 82.0232 20.4767 81.983 20.517C81.9427 20.5573 81.8937 20.5877 81.8397 20.6058C81.7857 20.6239 81.7283 20.6292 81.6719 20.6213V20.7298C81.8275 20.7502 81.9727 20.819 82.0872 20.9265L82.2858 20.8361C82.5746 20.9333 82.7191 21.035 82.7191 21.1435V21.252C82.5271 21.257 82.3425 21.3271 82.1955 21.4509H82.0872C81.9427 21.4509 81.8615 21.3492 81.8615 21.1435C81.8335 21.1449 81.8061 21.1519 81.7809 21.1641C81.7556 21.1763 81.7331 21.1935 81.7146 21.2145C81.6961 21.2356 81.682 21.2602 81.6731 21.2868C81.6642 21.3134 81.6607 21.3415 81.6629 21.3695V21.4599C81.9412 21.7492 82.0796 22.2066 82.0781 22.8319C82.0169 22.9303 81.9798 23.0418 81.9698 23.1574C82.1142 23.1574 82.3241 23.3314 82.6017 23.6818C82.7461 23.6818 82.8274 23.7111 82.8274 23.7722C82.7191 24.0615 82.6107 24.2062 82.5024 24.2062C82.5005 24.2208 82.502 24.2356 82.5068 24.2495C82.5116 24.2635 82.5196 24.2761 82.5301 24.2864C82.5406 24.2967 82.5533 24.3044 82.5673 24.3089C82.5813 24.3134 82.5962 24.3146 82.6107 24.3124C80.7241 30.9124 79.6423 34.4106 79.3655 34.8069L78.6253 35.0329H76.2105C75.4778 35.0329 74.8467 33.6662 74.3171 30.9328C73.619 28.4751 72.9216 26.3014 72.225 24.4118V23.9982C72.3198 23.9982 72.4236 23.8942 72.532 23.6908C72.4349 23.6908 72.3334 23.5823 72.225 23.3653C72.3198 23.3653 72.4236 23.2636 72.532 23.0579C72.532 22.9494 72.4281 22.8319 72.225 22.7324H71.9994C71.891 22.7324 71.7895 22.9811 71.6924 23.4738L71.8008 23.6998V33.9932C71.8008 34.6185 71.3803 34.9681 70.5392 35.0419H68.138C67.5242 35.0419 67.1759 34.5839 67.0931 33.6677V33.5773L67.2014 32.9467L67.0931 32.7206C67.1565 32.3379 67.1927 31.9512 67.2014 31.5634V31.4549C67.2043 31.3096 67.1668 31.1664 67.0931 31.0413L67.2014 30.8152L67.0931 29.3528C67.1653 28.0645 67.2014 27.2575 67.2014 26.9321L67.0931 25.6686L67.2014 25.1442C67.1425 25.0513 67.1054 24.9462 67.0931 24.8368C67.0908 24.822 67.092 24.8069 67.0966 24.7927C67.1013 24.7784 67.1092 24.7655 67.1197 24.7549C67.1303 24.7444 67.1432 24.7364 67.1574 24.7318C67.1716 24.7272 67.1867 24.726 67.2014 24.7283L67.0931 23.9892V23.6818C67.0794 23.5003 67.1169 23.3185 67.2014 23.1574L67.0931 22.7234C67.0931 22.2713 67.1292 21.3627 67.2014 19.9975L67.0931 18.5351C67.1653 17.8254 67.2014 17.2942 67.2014 16.9529C67.2014 16.6116 67.1653 15.9154 67.0931 14.9661C67.1653 14.1705 67.2014 13.4359 67.2014 12.7623C67.1966 12.5116 67.1602 12.2625 67.0931 12.021C67.1652 11.5672 67.2014 11.1084 67.2014 10.649V9.95733C67.2014 8.70513 67.1262 7.89821 66.9758 7.53656C66.9773 6.80122 67.6453 6.31375 68.9798 6.07416ZM68.8715 12.2673V12.5928C69.0024 12.5928 69.0701 12.5205 69.0701 12.3668L68.8715 12.2673ZM68.8715 28.1413C69.0024 28.6951 69.1423 28.9731 69.2845 28.9731L69.3928 28.7742C69.3206 28.3538 69.2122 28.1413 69.0701 28.1413H68.8715ZM68.9798 22.6692V22.7777H69.1761V22.6692H68.9798ZM69.0701 11.4378V11.6367H69.3928V11.4378H69.0701ZM69.1761 9.23403C69.1772 9.26216 69.1841 9.28978 69.1961 9.31519C69.2082 9.34061 69.2253 9.3633 69.2464 9.3819C69.2675 9.4005 69.2922 9.41461 69.3189 9.42339C69.3456 9.43216 69.3738 9.43541 69.4018 9.43294V9.23403H69.1761ZM69.1761 15.5357V15.6261H69.5914V15.5357H69.1761ZM69.1761 23.9349V24.1609H69.5914V24.0525L69.1761 23.9349ZM69.2845 9.54143V9.76746H69.3928V9.54143H69.2845ZM69.2845 14.062C69.7787 14.3265 70.0247 14.5141 70.0247 14.5864C70.4444 14.4304 70.6566 14.1886 70.6566 13.8631C70.557 13.8047 70.4463 13.7678 70.3316 13.7546C70.2899 13.7485 70.2473 13.7523 70.2073 13.7656C70.1673 13.7789 70.131 13.8014 70.1012 13.8312C70.0714 13.8611 70.049 13.8975 70.0357 13.9375C70.0224 13.9776 70.0186 14.0202 70.0247 14.062H69.6997V13.7546H69.5914C69.4921 13.7478 69.3928 13.8518 69.2845 14.0552V14.062ZM70.2233 14.6949C70.2065 15.0485 70.0584 15.383 69.808 15.6329V15.7414C70.0337 15.9674 70.133 16.146 70.133 16.2658C70.0608 16.5551 69.9164 16.6997 69.6997 16.6997C70.0247 17.4351 70.3436 17.8201 70.6566 17.8548V17.9452L70.2233 18.3791V18.9013H70.7469V19.1002C70.7469 19.2448 70.4693 19.3895 69.9164 19.5341V19.6426L70.7469 20.2574C70.7568 20.373 70.7939 20.4845 70.8552 20.5829L70.6566 20.6914L69.5914 20.3659C69.5914 20.5106 69.4898 20.592 69.2845 20.592C69.6659 20.901 70.092 21.1502 70.5483 21.3311V21.4215C70.5335 21.4192 70.5184 21.4204 70.5042 21.425C70.49 21.4296 70.4771 21.4376 70.4665 21.4481C70.456 21.4587 70.4481 21.4716 70.4434 21.4859C70.4388 21.5001 70.4376 21.5152 70.4399 21.53C70.5904 21.5556 70.6656 21.6309 70.6656 21.756V22.0634H70.142V21.6475H70.0337V21.8735C70.1059 22.5727 70.4181 22.9216 70.9703 22.92L71.1959 22.5946L70.9703 22.2894C70.9838 22.0613 71.0621 21.8417 71.1959 21.6566L71.3945 21.765H71.7195C71.7195 21.4147 71.785 21.2407 71.9181 21.2407C72.3379 21.5051 72.55 21.6814 72.55 21.765L72.4598 22.3979V22.5042C72.8968 22.5254 73.3093 22.713 73.613 23.0285H73.8116V22.92L73.5046 22.5042V21.982C73.1571 21.921 72.9811 21.8125 72.9811 21.6566V21.3492L73.288 20.9152V20.7841L72.55 20.3524C72.1995 19.7255 72.0249 19.1981 72.0264 18.7702L71.7195 18.9962H71.4938C71.4938 18.6481 71.284 18.4741 70.8642 18.4741V18.248C70.8868 18.1034 70.959 18.022 71.0899 18.022C71.2208 18.022 71.3156 18.1305 71.3156 18.3475H71.4058V18.022C71.4058 17.6739 71.3043 17.4976 71.0989 17.4976V17.2987L72.1461 17.3891C72.0697 17.2334 71.9516 17.1021 71.8049 17.0099C71.6582 16.9176 71.4888 16.8682 71.3156 16.867L71.4058 16.1437V15.8182H71.7308C71.7669 16.0963 71.8685 16.2341 72.0377 16.2341V15.9267C71.8714 15.5883 71.6231 15.2969 71.3156 15.0791H71.2072C71.2072 15.4634 71.0628 15.7097 70.7762 15.8182H70.6859C70.655 15.8244 70.623 15.8229 70.5927 15.8137C70.5625 15.8045 70.535 15.788 70.5127 15.7657C70.4904 15.7433 70.4739 15.7158 70.4648 15.6855C70.4556 15.6553 70.4541 15.6232 70.4602 15.5922C70.4963 15.4476 70.6701 15.3097 70.9816 15.1763C70.8394 14.8282 70.7356 14.6542 70.6769 14.6542C70.5773 14.7126 70.4666 14.7495 70.3519 14.7627C70.3508 14.7479 70.3462 14.7336 70.3386 14.7209C70.331 14.7083 70.3205 14.6975 70.308 14.6896C70.2955 14.6817 70.2814 14.6768 70.2666 14.6754C70.2519 14.674 70.2371 14.676 70.2233 14.6813V14.6949ZM69.4921 26.3534C69.4331 26.4463 69.396 26.5514 69.3838 26.6608V26.9863H69.2754V27.1852C69.4199 27.1852 69.5011 27.1197 69.5011 26.9863L69.6997 27.0948H69.808V26.6608C69.808 26.5659 69.7178 26.4619 69.4921 26.3534ZM69.3838 12.7917C69.4086 12.9364 69.474 13.0177 69.5824 13.0177H70.0157L70.3226 12.7917L70.2143 12.5928L70.3226 12.0684H70.4309L70.6566 12.1588V11.969C70.6566 11.8605 70.5482 11.743 70.3316 11.6458C70.1331 12.0598 69.8029 12.3962 69.3928 12.6019L69.3838 12.7917ZM69.4921 30.4536V31.0865H69.5824V30.4536H69.4921ZM69.6907 24.3508H69.9164V24.1542C69.7719 24.1753 69.6997 24.2401 69.6997 24.3486L69.6907 24.3508ZM69.799 10.9157V11.0061C69.8246 11.1568 69.8998 11.2321 70.0247 11.2321H70.133C70.2639 11.2321 70.3316 11.1598 70.3316 11.0061L69.799 10.9157ZM69.9073 27.7299C70.0157 28.0057 70.1172 28.1436 70.2143 28.1436C70.2452 28.1498 70.2772 28.1482 70.3074 28.139C70.3377 28.1299 70.3651 28.1134 70.3875 28.091C70.4098 28.0687 70.4262 28.0411 70.4354 28.0109C70.4446 27.9806 70.4461 27.9485 70.4399 27.9175C70.4399 27.7864 70.3647 27.7209 70.2143 27.7209L69.9073 27.7299ZM70.133 24.1542L70.0247 24.6763V24.8752C70.0495 25.0199 70.115 25.1012 70.2233 25.1012C70.5121 24.8255 70.7581 24.6853 70.9612 24.6853V24.5768C70.9612 24.4819 70.7875 24.3508 70.4399 24.1632L70.133 24.1542ZM70.3316 22.9969C70.3097 23.1527 70.2404 23.298 70.133 23.4128C70.3361 23.4128 70.4399 23.5507 70.4399 23.8287C70.9319 23.8287 71.1779 23.6177 71.1779 23.1958C70.9085 23.0833 70.6227 23.0153 70.3316 22.9946V22.9969ZM70.2233 10.2828V10.4817H70.6566V10.3868L70.2233 10.2828ZM70.7469 16.4782C70.8805 16.6626 70.9588 16.8814 70.9725 17.1089V17.3349H70.8461C70.7378 17.3349 70.634 17.0885 70.5392 16.5958L70.7469 16.4782ZM70.7469 13.3138C70.8913 13.3138 70.9725 13.4223 70.9725 13.6371C71.0024 13.6427 71.0332 13.6412 71.0624 13.6326C71.0915 13.624 71.1182 13.6085 71.1403 13.5876C71.1623 13.5666 71.1791 13.5407 71.1891 13.512C71.1992 13.4832 71.2023 13.4525 71.1982 13.4223V13.1149H70.9725C70.8191 13.1398 70.7469 13.2076 70.7469 13.3251V13.3138ZM71.4848 19.1906H71.5931C72.0851 20.106 72.3334 20.601 72.3334 20.6733C72.3334 20.9491 71.9843 21.1231 71.2862 21.1955C71.2862 21.2926 71.1779 21.3944 70.9612 21.5029H70.8461V21.1955L71.0718 20.87C71.0126 20.778 70.9756 20.6736 70.9635 20.5648C71.1566 20.4473 71.3716 20.3704 71.5954 20.3388V20.1399L71.0718 19.7263L71.4848 19.1906ZM70.9612 14.1524C70.9853 14.3031 71.0605 14.3784 71.1869 14.3784H71.3855C71.5278 14.3181 71.6469 14.2133 71.7249 14.0797C71.803 13.9461 71.8359 13.7909 71.8188 13.6371V13.5286C71.2456 13.8201 70.9612 14.0326 70.9612 14.1637V14.1524ZM71.0696 11.101L71.2952 11.2095V10.9021C71.1418 10.9247 71.0718 10.9925 71.0718 11.1123L71.0696 11.101ZM71.3765 11.7316V11.8401H71.6022V11.535C71.4517 11.5546 71.3765 11.6239 71.3765 11.7429V11.7316ZM71.3765 21.9368V22.0272H71.6022V21.9368H71.3765ZM71.7015 18.1441V18.4696C71.7263 18.6006 71.7917 18.6685 71.9001 18.6685L72.1257 18.56C72.1483 18.7106 72.2235 18.786 72.3514 18.786V18.56C72.2319 18.4505 72.1524 18.3041 72.1257 18.1441H71.7015ZM72.1167 22.0272V22.1403H72.3424V22.0318L72.1167 22.0272ZM72.225 17.7327V17.9316H72.3334V17.7327H72.225ZM72.4507 17.7327L72.6493 17.8412L72.7576 17.6152V17.5067H72.6516C72.6219 17.5061 72.5925 17.512 72.5652 17.5238C72.538 17.5356 72.5136 17.5532 72.4937 17.5752C72.4738 17.5973 72.4589 17.6234 72.4499 17.6517C72.4409 17.68 72.4381 17.71 72.4417 17.7395L72.4507 17.7327ZM72.6516 19.4279V19.6539H73.2812V19.5454C73.0736 19.4949 72.8634 19.4557 72.6516 19.4279ZM73.4979 21.6317V21.7402H73.6965V21.6317H73.4979ZM73.4979 23.6366V24.1609C73.6388 24.0239 73.8251 23.9434 74.0214 23.9349V23.6275L73.4979 23.6366ZM73.9131 22.6782V22.9042H74.0056V22.6782H73.9131ZM74.22 21.8487C74.2204 22.1277 74.1901 22.4058 74.1298 22.6782H74.4367V22.0476C74.4254 21.9142 74.3532 21.8396 74.2088 21.8396L74.22 21.8487ZM74.1298 23.4309V23.6569H74.22V23.4309H74.1298ZM74.3284 24.3689V24.5949C74.3594 24.6017 74.3917 24.6006 74.4222 24.5916C74.4527 24.5827 74.4804 24.5662 74.5029 24.5437C74.5254 24.5212 74.5418 24.4934 74.5508 24.4628C74.5597 24.4323 74.5608 24.4 74.554 24.3689H74.3284ZM76.2218 26.1568C76.228 26.1878 76.2264 26.2198 76.2173 26.2501C76.2081 26.2804 76.1917 26.3079 76.1693 26.3303C76.147 26.3526 76.1195 26.3691 76.0893 26.3783C76.0591 26.3874 76.0271 26.389 75.9961 26.3828C75.9352 26.3828 75.9058 26.3466 75.9058 26.2743L75.6802 26.3828C75.5819 26.3215 75.4705 26.2843 75.3552 26.2743L75.2649 26.5003V26.6088C75.4154 26.6088 75.7283 26.8138 76.2037 27.2236H76.3098L76.4181 26.2834L76.2218 26.1568ZM76.1135 29.2104V29.4364C76.1143 29.4647 76.1209 29.4925 76.1328 29.518C76.1448 29.5436 76.1619 29.5664 76.1831 29.5851C76.2043 29.6038 76.229 29.6178 76.2559 29.6265C76.2827 29.6351 76.3111 29.6382 76.3392 29.6354C76.4646 29.5608 76.6085 29.5232 76.7544 29.5269C76.8445 29.7241 76.8819 29.9414 76.8627 30.1575H77.278C77.278 29.9541 77.3863 29.8501 77.6029 29.8501V29.5269C77.4585 29.5269 77.3773 29.4952 77.3773 29.4364C77.4856 29.1471 77.5871 29.0025 77.6842 29.0025V29.4364C77.8514 29.3537 78.0374 29.3163 78.2236 29.328L78.1175 28.8036V28.5775H78.2935V28.1616H77.9889C77.8669 28.3333 77.711 28.478 77.5309 28.5869C77.3507 28.6958 77.1502 28.7664 76.9417 28.7945C76.8514 29.0522 76.5693 29.1901 76.1022 29.1901L76.1135 29.2104ZM76.4362 25.4357C76.4497 25.5691 76.5152 25.6347 76.6348 25.6347V25.4357H76.4362ZM76.5265 30.2569V30.3654L76.6348 30.8898C76.6066 30.8906 76.5789 30.8972 76.5533 30.9092C76.5278 30.9212 76.505 30.9383 76.4864 30.9595C76.4677 30.9807 76.4537 31.0056 76.445 31.0325C76.4364 31.0593 76.4334 31.0877 76.4362 31.1158H76.9395C76.9257 30.9343 76.9632 30.7526 77.0478 30.5915C76.9895 30.4917 76.9526 30.3808 76.9395 30.266L76.5265 30.2569ZM76.8514 31.9363V32.1623H77.1584C77.1584 32.0177 77.0929 31.9363 76.9598 31.9363H76.8514ZM77.2667 31.4119C77.2698 31.5579 77.2323 31.702 77.1584 31.8278L77.6819 31.9363H77.7903V31.6289C77.7903 31.4843 77.7226 31.4029 77.5917 31.4029L77.2667 31.4119ZM77.375 30.8898L77.2667 31.1158H77.5917C77.6023 31.0833 77.604 31.0485 77.5967 31.015C77.5894 30.9815 77.5733 30.9506 77.5501 30.9255C77.5268 30.9004 77.4973 30.8819 77.4645 30.8721C77.4318 30.8622 77.397 30.8613 77.3637 30.8695L77.375 30.8898ZM77.7903 27.0066C77.5127 27.4045 77.375 27.6508 77.375 27.748C77.4706 27.7975 77.5748 27.8282 77.6819 27.8384C77.9076 27.8384 78.0069 27.6621 78.0069 27.314H78.2326V27.8384H78.5192L78.4109 27.6395C78.4086 27.6247 78.4098 27.6096 78.4144 27.5954C78.419 27.5812 78.4269 27.5683 78.4375 27.5577C78.448 27.5471 78.4609 27.5392 78.4751 27.5346C78.4893 27.5299 78.5044 27.5287 78.5192 27.531C78.4357 27.1807 78.3341 27.0066 78.2123 27.0066H77.7903ZM78.2213 29.945C77.8015 30.3067 77.5917 30.5485 77.5917 30.6683C77.5769 30.666 77.5618 30.6672 77.5476 30.6718C77.5334 30.6765 77.5205 30.6844 77.51 30.695C77.4994 30.7055 77.4915 30.7185 77.4869 30.7327C77.4822 30.7469 77.481 30.762 77.4833 30.7768L78.0069 30.8853H78.2326C78.3657 30.8853 78.4312 30.813 78.4312 30.6593V30.1349C78.4374 30.1051 78.4359 30.0742 78.4267 30.0452C78.4175 30.0162 78.401 29.9901 78.3787 29.9694C78.3564 29.9486 78.3292 29.9341 78.2996 29.927C78.2701 29.92 78.2392 29.9207 78.21 29.9292L78.2213 29.945ZM78.2935 26.6608V26.8868H78.5192V26.6608H78.2935ZM78.5192 25.8313V25.9398C78.5206 25.9677 78.5276 25.9951 78.5398 26.0202C78.5521 26.0454 78.5692 26.0678 78.5903 26.0862C78.6114 26.1045 78.6359 26.1185 78.6625 26.1271C78.689 26.1357 78.7171 26.1389 78.7449 26.1364L78.8352 25.9398L78.6366 25.8313H78.5192ZM78.5192 28.3402V28.4487H78.7449V28.3402H78.5192ZM78.7449 26.6608V26.8868H78.8352V26.6608H78.7449ZM78.8352 24.9814V25.0899H79.0608V24.9814H78.8352ZM78.8352 28.1458V28.4532H78.9435C79.0879 28.4532 79.1691 28.3877 79.1691 28.2543V28.1458H78.8352ZM79.0608 29.9337L78.9525 30.4581H79.1782V29.9337H79.0608ZM79.0608 26.7693V27.1852H79.1691C79.3136 27.1852 79.3948 27.1197 79.3948 26.9863L79.0608 26.7693ZM79.0608 28.5572V28.6657H79.3858V28.5572H79.0608ZM79.6927 25.3069V25.5058H79.801V25.3046L79.6927 25.3069ZM79.801 26.4619V26.5704H80.214V26.4619H79.801ZM80.4307 24.457V24.6831C80.5638 24.6831 80.6293 24.6107 80.6293 24.457H80.4307ZM80.539 22.7777V23.0037H81.0626V22.8952L80.539 22.7777ZM80.934 23.7225H81.1326V23.5235C81.0017 23.5439 80.934 23.6094 80.934 23.7225ZM81.2409 24.6785V24.8775C81.3853 24.8775 81.4665 24.8119 81.4665 24.6785H81.2409ZM81.3492 21.9526V22.26H81.453V21.9526H81.3492ZM81.6719 23.1077V23.8309C81.6989 23.8347 81.7263 23.8321 81.7521 23.8235C81.7779 23.8148 81.8014 23.8003 81.8206 23.781C81.8399 23.7617 81.8544 23.7382 81.8631 23.7124C81.8717 23.6865 81.8743 23.659 81.8705 23.632V23.1077H81.6719ZM81.7622 18.7928V18.899C81.7633 18.9271 81.7701 18.9547 81.7822 18.9802C81.7943 19.0056 81.8114 19.0283 81.8325 19.0469C81.8536 19.0655 81.8782 19.0796 81.9049 19.0884C81.9317 19.0971 81.9599 19.1004 81.9879 19.0979V18.5758C81.8374 18.5954 81.7622 18.6662 81.7622 18.7883V18.7928ZM82.2858 19.0979H82.6107V18.899H82.5024C82.3557 18.9193 82.2858 18.9759 82.2858 19.0934V19.0979ZM82.9177 21.2113H83.0328C83.1411 21.2113 83.2787 21.3492 83.448 21.6272L83.6737 21.5187H83.782V21.6272C83.782 21.7244 83.6737 21.8329 83.4593 21.9526C83.3735 21.9526 83.1998 21.7718 82.9357 21.4102L82.9177 21.2113ZM83.026 13.9512H83.4412C83.445 13.9242 83.4424 13.8967 83.4338 13.8709C83.4251 13.8451 83.4106 13.8216 83.3914 13.8023C83.3721 13.783 83.3487 13.7685 83.3229 13.7598C83.297 13.7511 83.2696 13.7486 83.2426 13.7523C83.0982 13.7772 83.0328 13.8382 83.0328 13.9467L83.026 13.9512ZM83.026 23.3066V23.5326H83.1343V23.3066H83.026ZM83.1343 15.1085V15.4317L83.8723 15.2057V15.0091C83.7083 14.9815 83.5573 14.9023 83.4412 14.783C83.3442 14.7966 83.2426 14.9073 83.1343 15.104V15.1085ZM84.5042 15.1085C84.5042 15.3345 84.2943 15.4679 83.8723 15.5402L83.1343 15.9561V16.1821H83.2426L83.5473 15.9561H83.6556C83.8001 15.9561 83.8813 16.1302 83.8813 16.4805H83.9896C84.614 16.4805 84.9269 16.2334 84.9285 15.7391L84.7028 15.1085H84.5042ZM83.1343 16.6907V17.1043H83.4412V16.8896C83.445 16.8626 83.4424 16.8351 83.4338 16.8093C83.4251 16.7834 83.4106 16.7599 83.3914 16.7407C83.3721 16.7214 83.3487 16.7068 83.3229 16.6982C83.297 16.6895 83.2696 16.687 83.2426 16.6907H83.1343ZM83.4412 16.4647V16.6907H83.5473V16.4647H83.4412ZM83.5473 24.0321L83.4412 24.2581H83.7639C83.7677 24.2288 83.7647 24.1991 83.7551 24.1712C83.7455 24.1432 83.7296 24.1179 83.7086 24.0971C83.6877 24.0764 83.6622 24.0607 83.6342 24.0514C83.6062 24.0421 83.5765 24.0393 83.5473 24.0434V24.0321ZM83.5473 12.69V12.9974H83.6556V12.69H83.5473ZM84.1792 8.89725C84.1792 8.99369 84.2875 9.10219 84.5042 9.22273H84.7028V9.11424C84.7028 8.96958 84.6351 8.88821 84.5042 8.88821L84.1792 8.89725ZM85.4407 13.2144C85.4407 13.4178 85.3031 13.5195 85.0278 13.5195L85.1361 14.0439C84.942 14.0439 84.8337 13.8699 84.8111 13.5195C84.3891 13.8699 84.1792 14.1818 84.1792 14.4598C84.4304 14.6245 84.728 14.7038 85.0278 14.6858C85.04 14.5765 85.0771 14.4713 85.1361 14.3784C85.1213 14.3808 85.1062 14.3795 85.092 14.3749C85.0778 14.3703 85.0649 14.3624 85.0544 14.3518C85.0438 14.3412 85.0359 14.3283 85.0313 14.3141C85.0266 14.2998 85.0254 14.2847 85.0278 14.2699C85.0425 14.2723 85.0576 14.2711 85.0718 14.2664C85.086 14.2618 85.0989 14.2539 85.1094 14.2433C85.12 14.2327 85.1279 14.2198 85.1326 14.2056C85.1372 14.1913 85.1384 14.1762 85.1361 14.1615L85.3324 14.2699C85.61 14.2089 85.7477 14.1388 85.7477 14.0439L85.6574 13.845C85.7753 13.6548 85.8436 13.4379 85.856 13.2144H85.4407ZM85.4407 10.276C85.4165 10.4344 85.3412 10.5804 85.2263 10.6919V10.8004C85.2768 10.916 85.3497 11.0205 85.4407 11.1078V11.2163C85.4407 11.3248 85.3031 11.4333 85.0278 11.5418C84.8426 11.4084 84.6235 11.33 84.3958 11.3158H84.2875V11.4242C84.4629 11.6076 84.6036 11.8212 84.7028 12.0549C85.3144 12.0549 85.7003 11.7362 85.856 11.0988C85.856 10.8931 85.9282 10.7914 86.0817 10.7914V10.6829C86.0726 10.5992 85.8627 10.4614 85.4407 10.2805V10.276ZM84.2875 10.276V10.3868H84.5944V10.2783L84.2875 10.276ZM84.2875 12.3713V12.5973C84.2886 12.6255 84.2954 12.6531 84.3075 12.6785C84.3196 12.7039 84.3367 12.7266 84.3578 12.7452C84.3789 12.7638 84.4036 12.7779 84.4303 12.7867C84.457 12.7955 84.4852 12.7987 84.5132 12.7962C84.6425 12.7334 84.7848 12.7024 84.9285 12.7058C84.7606 12.5312 84.6477 12.3112 84.6035 12.073C84.4974 12.0684 84.3868 12.1724 84.2875 12.3758V12.3713ZM84.2875 15.6216H84.5132V15.7301H84.2875V15.6216ZM84.3958 20.1557L84.2875 20.7863C84.432 20.7863 84.5132 20.9265 84.5132 21.2022H84.6035L85.0368 20.7863C85.1677 20.7863 85.2354 20.8903 85.2354 21.0937H85.4498C85.6551 21.0937 85.7567 20.9559 85.7567 20.6801C85.698 20.4541 85.6303 20.3546 85.5581 20.3546L85.3324 20.4631C85.053 20.2728 84.7246 20.1676 84.3868 20.1602L84.3958 20.1557ZM85.6574 21.7266H85.4317C85.2867 21.7295 85.1437 21.6919 85.0187 21.6181C84.9104 21.6181 84.7344 21.8283 84.4951 22.251H84.3868V22.3663C84.5323 22.363 84.6759 22.3998 84.8021 22.4725C84.928 22.3992 85.0717 22.3624 85.2173 22.3663C85.3595 22.3663 85.4317 22.5403 85.4317 22.8884H85.847C85.847 22.5403 85.9222 22.3663 86.0726 22.3663C86.0707 22.3809 86.0722 22.3957 86.077 22.4097C86.0818 22.4236 86.0898 22.4362 86.1003 22.4465C86.1108 22.4568 86.1236 22.4645 86.1376 22.469C86.1516 22.4736 86.1664 22.4747 86.181 22.4725L86.2893 22.2465V22.0205C86.1524 21.8793 86.0721 21.6927 86.0636 21.4961H85.9666L85.6574 21.7266ZM84.8111 9.64541V10.1675H85.2263C85.3459 10.1675 85.452 9.99349 85.5491 9.64541H85.4407C85.3489 9.70468 85.2446 9.74181 85.1361 9.7539C85.0361 9.69709 84.9254 9.66169 84.8111 9.64993V9.64541ZM85.0368 25.1939V25.4199H85.3414C85.3724 25.4261 85.4044 25.4246 85.4346 25.4154C85.4648 25.4062 85.4923 25.3897 85.5146 25.3674C85.537 25.345 85.5534 25.3175 85.5626 25.2872C85.5717 25.257 85.5733 25.2249 85.5671 25.1939H85.0368ZM85.0368 26.0234L85.2354 26.1319V25.8268C85.0932 25.8539 85.0278 25.9217 85.0278 26.0279L85.0368 26.0234ZM85.1451 12.8957V13.0042H85.3414V12.8957H85.1451ZM85.1451 17.2106L85.2354 17.4095L85.1451 17.6355L85.3414 17.744C85.3724 17.7502 85.4044 17.7486 85.4346 17.7395C85.4648 17.7303 85.4923 17.7138 85.5146 17.6915C85.537 17.6691 85.5534 17.6416 85.5626 17.6113C85.5717 17.581 85.5733 17.549 85.5671 17.518V17.4095C85.5671 17.2784 85.4949 17.2106 85.3414 17.2106H85.1451ZM85.1451 31.2808V31.5069C85.276 31.5069 85.3414 31.4345 85.3414 31.2808H85.1451ZM85.2354 22.9901V23.189H85.3414V22.9901H85.2354ZM85.4498 28.2453C85.4398 28.4394 85.3642 28.6243 85.2354 28.7697L85.4498 28.8782L85.6754 28.3357L85.4498 28.2453ZM85.4498 26.0234V26.1319H85.6754V26.0234H85.4498ZM85.5581 30.3406V30.4491C85.5829 30.5824 85.6484 30.648 85.7567 30.648V30.1236C85.7283 30.1238 85.7003 30.1299 85.6744 30.1413C85.6484 30.1526 85.625 30.1692 85.6056 30.1899C85.5862 30.2106 85.5712 30.235 85.5615 30.2617C85.5518 30.2884 85.5475 30.3167 85.5491 30.3451L85.5581 30.3406ZM85.865 15.0091V15.0995C85.9232 15.1985 85.9601 15.3086 85.9733 15.4227H86.0817L86.19 15.0091H85.865ZM85.865 23.189V23.623C85.8986 23.6328 85.9341 23.6347 85.9686 23.6284C86.003 23.6221 86.0356 23.6079 86.0636 23.5868C86.0916 23.5658 86.1144 23.5385 86.1301 23.5071C86.1457 23.4757 86.1539 23.4411 86.1539 23.406C86.1539 23.3709 86.1457 23.3363 86.1301 23.3049C86.1144 23.2735 86.0916 23.2462 86.0636 23.2252C86.0356 23.2041 86.003 23.1899 85.9686 23.1836C85.9341 23.1774 85.8986 23.1792 85.865 23.189ZM85.9666 19.4279V19.6539H86.1922V19.4279H85.9666ZM85.9666 31.204V31.4006H86.0749V31.204H85.9666ZM86.2915 10.4885V10.7145H86.3818V10.4885H86.2915Z" fill="white"/>
<path d="M93.3756 6.07416C93.8008 6.11999 94.2223 6.19552 94.6371 6.30019C95.1213 6.23534 95.6088 6.19911 96.0972 6.19169H97.0541C97.4406 6.20046 97.826 6.23672 98.2073 6.30019C98.2683 6.30019 98.2976 6.26402 98.2976 6.19169L99.0378 6.30019H100.823L101.453 6.19169C101.545 6.25078 101.65 6.28788 101.759 6.30019C102.457 6.22786 102.987 6.19169 103.339 6.19169C104.036 6.38457 104.385 6.59478 104.386 6.82231V9.32445C104.386 9.47591 104.423 9.62513 104.495 9.75842C99.5885 23.1468 97.1361 29.9066 97.1376 30.0377H97.2504C97.5137 30.1462 98.2472 30.2486 99.4508 30.3451C99.5968 30.3188 99.7408 30.2825 99.8818 30.2366C100.665 30.3089 101.396 30.3451 102.082 30.3451L103.344 30.2366C104.04 30.4069 104.389 30.7263 104.391 31.1949V33.9209C104.24 34.6185 103.891 34.9681 103.344 34.9696H92.7369C91.9666 34.9696 91.5822 34.3737 91.5837 33.1817C91.7642 31.2786 91.9749 30.2607 92.2156 30.1281C93.681 26.0596 94.4137 23.7842 94.4137 23.302C94.6439 23.302 95.1667 22.0077 95.9821 19.4189C97.065 16.9119 98.0156 14.3497 98.8302 11.7429V10.9134H92.7369C92.0403 10.9134 91.692 10.2451 91.692 8.90856L91.8003 8.49266C91.6909 8.2204 91.6151 7.93575 91.5746 7.64505C91.9117 6.74094 92.3984 6.28888 93.0348 6.28888C93.0453 6.24066 93.1589 6.16909 93.3756 6.07416ZM94.0075 31.0865V31.1949C94.0811 31.3201 94.1186 31.4633 94.1158 31.6086H94.5288C94.6371 31.6086 94.7748 31.4707 94.944 31.1949L94.0075 31.0865ZM94.5288 30.0377V30.6525H94.8357C94.9801 30.1349 95.0614 29.8569 95.0614 29.8207H94.7454C94.601 29.8463 94.5288 29.9186 94.5288 30.0377ZM94.5288 32.133V32.359H94.8357C94.8357 32.2143 94.7702 32.133 94.6371 32.133H94.5288ZM95.0523 8.38417L94.944 8.6102V8.80458H95.0523C95.1968 8.80458 95.278 8.73903 95.278 8.60567C95.2834 8.575 95.2812 8.54348 95.2716 8.51384C95.2621 8.4842 95.2455 8.45732 95.2233 8.43553C95.2011 8.41373 95.1739 8.39767 95.1442 8.38872C95.1144 8.37977 95.0829 8.37821 95.0523 8.38417ZM94.944 30.6525C95.0629 30.7698 95.1419 30.9216 95.1697 31.0865H95.8016L96.3229 31.1949V31.0865L95.9979 30.6525L95.5849 30.761L94.944 30.6525ZM95.0523 28.0328C95.0764 28.1835 95.1516 28.2588 95.278 28.2588C95.4089 28.2588 95.4766 28.1865 95.4766 28.0328H95.0523ZM95.1607 32.35L95.269 32.8743H95.4676V32.35H95.1607ZM95.269 31.6086V31.916C95.269 32.0606 95.3457 32.142 95.4676 32.142C95.7565 32.0335 95.9009 31.925 95.9009 31.8165V31.7261C95.9009 31.5754 95.7926 31.5001 95.5759 31.5001C95.4832 31.5592 95.3782 31.5963 95.269 31.6086ZM95.3593 26.9863V27.0948H95.7926V26.9863H95.3593ZM95.3593 29.4975V29.8252H95.6842V29.3031H95.5759C95.4315 29.3212 95.3593 29.389 95.3593 29.4975ZM95.5849 28.9731V29.0816H95.8106V28.7742C95.6481 28.799 95.5759 28.8646 95.5759 28.9731H95.5849ZM95.6933 26.2449V26.3534H96.1063V26.2449H95.6933ZM95.8016 27.5107V27.7367H96.1063C96.0344 27.6034 95.9972 27.4542 95.9979 27.3027C95.9708 27.3027 95.9439 27.3081 95.9188 27.3186C95.8938 27.3291 95.871 27.3444 95.8519 27.3638C95.8328 27.3831 95.8177 27.4061 95.8075 27.4313C95.7974 27.4565 95.7923 27.4835 95.7926 27.5107H95.8016ZM95.9979 8.60116L95.9099 9.01705L96.1063 9.12554V8.60116H95.9979ZM95.9979 26.4574V26.6608H96.1063V26.4619L95.9979 26.4574ZM96.1063 25.8268V25.9353H96.2146C96.2455 25.9415 96.2775 25.9399 96.3078 25.9307C96.338 25.9216 96.3655 25.9051 96.3878 25.8827C96.4101 25.8604 96.4266 25.8328 96.4357 25.8026C96.4449 25.7723 96.4464 25.7402 96.4403 25.7092V25.6007H96.3319C96.1755 25.6324 96.0972 25.7092 96.0972 25.8313L96.1063 25.8268ZM96.2146 32.02L96.1063 32.246V32.7636H96.6298V32.2392C96.4683 32.2175 96.3188 32.1418 96.2056 32.0245L96.2146 32.02ZM96.6298 8.07451V8.27115H96.7382V8.07451H96.6298ZM96.8555 23.0986C96.8555 23.1958 96.9932 23.2975 97.2708 23.406V23.0986H96.8555ZM96.8555 31.9137V32.1397H96.9638V31.9137H96.8555ZM97.1624 21.6204V21.8464H97.2504V21.6204H97.1624ZM97.2708 9.01479V9.12328C97.2716 9.15152 97.2781 9.17929 97.2901 9.20486C97.3021 9.23044 97.3192 9.25327 97.3404 9.27193C97.3616 9.29059 97.3863 9.30468 97.4132 9.31333C97.44 9.32197 97.4684 9.32499 97.4964 9.32218V9.23177C97.5017 9.19947 97.4987 9.16634 97.4877 9.13553C97.4766 9.10472 97.4578 9.07726 97.4332 9.05575C97.4085 9.03424 97.3788 9.01939 97.3468 9.01262C97.3149 9.00584 97.2817 9.00737 97.2504 9.01705L97.2708 9.01479ZM97.2708 32.0222V32.2482H97.3791V32.0222H97.2708ZM97.5957 31.2831C97.5971 31.4339 97.5598 31.5826 97.4874 31.7148H97.9004C97.9314 31.721 97.9634 31.7195 97.9936 31.7103C98.0238 31.7011 98.0513 31.6846 98.0736 31.6623C98.0959 31.6399 98.1124 31.6124 98.1215 31.5821C98.1307 31.5518 98.1323 31.5198 98.1261 31.4888L97.5957 31.2831ZM97.686 8.7978V8.90629C97.7086 9.05095 97.7808 9.13232 97.9004 9.13232C98.178 9.02383 98.3156 8.90629 98.3156 8.80684C98.223 8.74746 98.118 8.71033 98.0087 8.69835C97.9059 8.76193 97.7887 8.79848 97.6679 8.80458L97.686 8.7978ZM97.7943 19.4211V19.7285H98.1171V19.4279L97.7943 19.4211ZM98.1171 20.6869V20.8835C98.1419 21.0282 98.2073 21.1096 98.3156 21.1096L98.5413 21.0011L98.433 20.3705C98.3089 20.3591 98.2073 20.4676 98.099 20.6846L98.1171 20.6869ZM99.0559 16.5867V17.0026H99.1642V16.5867H99.0559ZM99.0559 32.6596V32.7636L99.5772 32.8721V32.5466L99.0559 32.6596ZM99.2815 18.682H99.4801V18.4831C99.3199 18.4922 99.2545 18.5577 99.2545 18.6798L99.2815 18.682ZM99.4801 15.0158L99.7058 15.1063V14.7989C99.5253 14.8215 99.4531 14.8915 99.4531 15.0136L99.4801 15.0158ZM99.5862 33.3987V33.5976H99.6945V33.3987H99.5862ZM99.9112 8.91081V9.2363H100.11C100.095 9.0883 100.121 8.93913 100.184 8.80458L100.41 8.91307H100.518V8.60116C100.094 8.63732 99.8841 8.74129 99.8841 8.90856L99.9112 8.91081ZM100.001 32.0267V32.2528C100.032 32.259 100.064 32.2574 100.095 32.2482C100.125 32.2391 100.152 32.2226 100.175 32.2002C100.197 32.1779 100.213 32.1503 100.223 32.1201C100.232 32.0898 100.233 32.0577 100.227 32.0267H100.001ZM100.11 9.76068V9.84883C100.135 10.4162 100.207 10.6987 100.335 10.6987C100.52 10.5646 100.74 10.4862 100.967 10.4727C100.965 10.4874 100.966 10.5026 100.971 10.5168C100.976 10.531 100.983 10.5439 100.994 10.5545C101.005 10.5651 101.017 10.573 101.032 10.5776C101.046 10.5823 101.061 10.5835 101.076 10.5812C101.076 10.484 101.177 10.3823 101.383 10.2738H101.608L101.807 10.3823L102.24 9.95055V9.83979H102.014L100.97 9.75164C100.97 9.88274 100.897 9.95055 100.744 9.95055L100.545 9.83979C100.548 9.85465 100.546 9.86982 100.542 9.88411C100.537 9.8984 100.529 9.91142 100.519 9.92215C100.508 9.93289 100.495 9.94104 100.481 9.94596C100.467 9.95089 100.452 9.95246 100.437 9.95055C100.437 9.81719 100.365 9.75164 100.211 9.75164L100.11 9.76068ZM100.335 12.699V12.7895H100.642V12.699H100.335ZM100.335 32.2392V32.5466H100.41V32.2392H100.335ZM100.444 32.9625V33.1885H100.642V32.9625H100.444ZM100.552 14.4689V14.6949H100.642V14.4689H100.552ZM100.751 13.1127V13.3251H100.859V13.1262L100.751 13.1127ZM100.859 10.9993V11.2253H100.967V10.9993H100.859ZM101.274 13.5263V13.8518H101.383V13.5263H101.274ZM101.5 11.4333V11.6322H101.608V11.4333H101.5ZM101.608 9.53691V9.64541H101.764V9.53691H101.608ZM101.608 12.3713C101.608 12.4685 101.712 12.577 101.915 12.6968L102.024 12.4708V12.3623L101.608 12.3713ZM101.717 32.6528V32.7636C101.73 32.8947 101.796 32.9625 101.915 32.9625H102.024V32.4381H101.915C101.884 32.4326 101.852 32.4342 101.821 32.4429C101.791 32.4515 101.763 32.467 101.739 32.4881C101.716 32.5092 101.697 32.5354 101.685 32.5647C101.673 32.594 101.667 32.6257 101.669 32.6574L101.717 32.6528Z" fill="white"/>
<path d="M107.632 6.17365C107.84 6.22139 108.051 6.25761 108.264 6.28214C109.488 6.20981 110.257 6.17365 110.57 6.17365C111.136 6.38837 111.419 6.70933 111.419 7.12974V9.76749C111.419 10.4659 110.997 10.8502 110.157 10.9225H107.632C107.18 10.9225 106.826 10.5375 106.569 9.76749C106.67 9.4548 106.746 9.13426 106.794 8.80914C106.722 8.08886 106.686 7.52906 106.686 7.12974C106.731 6.79221 107.046 6.47351 107.632 6.17365ZM108.047 12.9274H110.362C111.057 13.0246 111.407 13.3433 111.407 13.8835V33.8124C111.407 34.5108 110.985 34.8973 110.146 34.9697H107.406C107.169 34.8302 106.975 34.6283 106.845 34.386C106.715 34.1436 106.654 33.8702 106.668 33.5954V31.8979C106.668 30.9351 106.704 29.6708 106.776 28.1052C106.779 28.0904 106.777 28.0753 106.773 28.0611C106.768 28.0468 106.76 28.0339 106.75 28.0233C106.739 28.0128 106.726 28.0048 106.712 28.0002C106.698 27.9956 106.683 27.9944 106.668 27.9967L106.776 27.4746V19.4822L106.882 18.8516C106.774 18.6168 106.702 18.3668 106.668 18.1102C106.677 17.7231 106.713 17.3371 106.776 16.9552C106.704 15.9004 106.668 15.0151 106.668 14.2994C106.787 13.3847 107.243 12.9274 108.036 12.9274H108.047ZM108.047 21.8758V22.0747H108.354V21.8758H108.047ZM108.462 23.1393L108.155 23.5552H108.264C108.389 23.4814 108.531 23.4439 108.677 23.4467V23.3563C108.681 23.326 108.678 23.295 108.668 23.266C108.658 23.2369 108.642 23.2107 108.62 23.1895C108.598 23.1682 108.571 23.1526 108.541 23.1439C108.512 23.1351 108.481 23.1336 108.451 23.1393H108.462ZM108.462 17.2626V17.4886H108.57V17.2626H108.462ZM108.462 28.8488V29.1472C108.485 29.2918 108.557 29.3732 108.688 29.3732C108.688 29.2225 108.796 29.1472 109.013 29.1472V29.0387C109.013 28.9053 108.941 28.8398 108.787 28.8398L108.462 28.8488ZM108.57 27.0406V27.3661H108.785V27.0406H108.57ZM109.002 25.6686L108.677 26.1907C108.702 26.3414 108.777 26.4167 108.902 26.4167L109.317 26.0009C109.297 25.8856 109.196 25.7771 108.986 25.6686H109.002ZM108.677 29.6942V29.7846H109.092V29.3732H108.986C108.882 29.3732 108.774 29.4794 108.665 29.6942H108.677ZM108.677 30.4174V30.5259C108.702 30.6766 108.777 30.752 108.902 30.752V30.4265L108.677 30.4174ZM108.785 19.3737V19.5997H108.893V19.3737H108.785ZM108.893 18.6346L109.2 18.8606C109.231 18.8668 109.263 18.8653 109.293 18.8561C109.324 18.8469 109.351 18.8304 109.373 18.8081C109.396 18.7857 109.412 18.7582 109.421 18.7279C109.43 18.6977 109.432 18.6656 109.426 18.6346C109.426 18.5012 109.354 18.4357 109.2 18.4357H109.092C108.95 18.447 108.882 18.5238 108.882 18.6346H108.893ZM108.893 24.7374V25.0448C108.918 25.1894 108.983 25.2708 109.092 25.2708V24.9453C109.1 24.9159 109.1 24.885 109.092 24.8556C109.084 24.8262 109.069 24.7992 109.048 24.7774C109.027 24.7556 109.001 24.7396 108.971 24.731C108.942 24.7224 108.911 24.7214 108.882 24.7283L108.893 24.7374ZM109.2 16.3314H109.426V16.1053C109.268 16.1294 109.189 16.2018 109.189 16.3223L109.2 16.3314ZM109.525 23.9982V24.1067H109.751V23.7813C109.593 23.7978 109.514 23.8671 109.514 23.9892L109.525 23.9982ZM109.633 16.4218V16.6478H109.742V16.4218H109.633ZM109.633 30.8605V30.9554H109.832V30.8469L109.633 30.8605Z" fill="white"/>
<path d="M118.349 6.29117C119.324 6.3748 119.809 6.585 119.809 6.92179V34.2464C119.556 34.727 119.208 34.9681 118.764 34.9696H115.83C115.555 34.8476 115.309 34.4633 115.093 33.8124C115.093 33.6316 115.129 32.6928 115.201 30.9961C115.204 30.8501 115.166 30.7062 115.093 30.5802C115.156 30.2713 115.193 29.9574 115.201 29.6422V29.4161C115.201 27.6576 115.165 25.496 115.093 22.9314L115.201 22.4093C115.135 21.9904 115.099 21.5674 115.093 21.1435C115.093 19.6999 115.129 17.9904 115.201 16.0149C115.201 15.8823 115.165 15.2562 115.093 14.1366C115.165 13.2219 115.201 11.9276 115.201 10.2534C115.187 9.97445 115.151 9.69703 115.093 9.42392L115.201 8.79104L115.093 7.32864C115.1 6.63699 116.186 6.29117 118.349 6.29117ZM116.769 18.5351V18.6436H116.968V18.5351H116.769ZM116.769 26.2811H117.185V25.9828C116.918 26.0709 116.781 26.1726 116.781 26.2811H116.769ZM116.769 29.2195V29.4455H116.968C116.979 29.2805 116.914 29.2082 116.781 29.2082L116.769 29.2195ZM116.878 23.5688V23.6773H117.076V23.5688H116.878ZM117.185 13.3116H117.41V13.0991C117.268 13.1104 117.196 13.176 117.196 13.298L117.185 13.3116ZM117.293 23.2569L117.185 23.6727L117.41 23.7812V23.2478L117.293 23.2569ZM117.185 27.1219V27.348H117.293V27.1219H117.185ZM117.185 31.6425V31.7329H117.41V31.6335L117.185 31.6425ZM117.185 32.2573V32.3658H117.41V32.2573H117.185ZM117.293 20.861V20.9514H117.598V20.861H117.293ZM117.491 15.8228L117.401 16.0488V16.1573H117.706V16.0488C117.713 16.0191 117.713 15.9881 117.706 15.9584C117.699 15.9287 117.685 15.901 117.665 15.8778C117.645 15.8546 117.62 15.8365 117.592 15.825C117.564 15.8134 117.533 15.8088 117.503 15.8115L117.491 15.8228ZM117.401 24.0954H117.706V23.788C117.622 23.7722 117.521 23.8739 117.413 24.0796L117.401 24.0954ZM117.491 13.115L117.598 13.3139C117.723 13.2403 117.867 13.2028 118.013 13.2054V12.8731C117.876 13.0077 117.694 13.088 117.503 13.0991L117.491 13.115ZM117.598 16.7811V17.0863C117.627 17.0925 117.658 17.0913 117.688 17.0829C117.717 17.0745 117.744 17.0591 117.766 17.038C117.789 17.0169 117.805 16.9907 117.815 16.9618C117.825 16.9328 117.828 16.9018 117.823 16.8716V16.7811H117.598ZM117.706 25.9918V26.0799H117.932V25.9828L117.706 25.9918ZM117.814 15.4069V15.6329H117.923V15.4069H117.814ZM117.814 18.8561V18.9646H118.013V18.8561H117.814ZM117.923 32.1669V32.2573H118.121V32.1669H117.923ZM118.238 12.2493V12.7737H118.347L118.455 12.2493H118.238ZM118.238 24.1881V24.2943C118.24 24.3225 118.246 24.3501 118.258 24.3755C118.271 24.4009 118.288 24.4236 118.309 24.4422C118.33 24.4608 118.355 24.4749 118.381 24.4837C118.408 24.4925 118.436 24.4957 118.464 24.4932V24.1881H118.238ZM118.238 32.2415V32.567H118.347V32.2415H118.238Z" fill="white"/>
<path d="M126.841 6.29117C127.816 6.3748 128.301 6.585 128.301 6.92179V34.2464C128.051 34.7278 127.701 34.9696 127.257 34.9696H124.332C124.054 34.8476 123.808 34.4633 123.592 33.8124C123.592 33.6316 123.628 32.6928 123.7 30.9961C123.703 30.8501 123.665 30.7062 123.592 30.5802C123.655 30.2713 123.692 29.9574 123.7 29.6422V29.4161C123.7 27.6576 123.664 25.496 123.592 22.9314L123.7 22.4093C123.634 21.9904 123.598 21.5674 123.592 21.1435C123.592 19.6999 123.628 17.9904 123.7 16.0149C123.7 15.8823 123.664 15.2562 123.592 14.1366C123.664 13.2219 123.7 11.9276 123.7 10.2534C123.686 9.97445 123.65 9.69703 123.592 9.42392L123.7 8.79104L123.592 7.32864C123.595 6.63699 124.678 6.29117 126.841 6.29117ZM125.262 18.5351V18.6436H125.46V18.5351H125.262ZM125.262 26.2811H125.686V25.9828C125.411 26.0709 125.273 26.1726 125.273 26.2811H125.262ZM125.262 29.2195V29.4455H125.46C125.471 29.2805 125.406 29.2082 125.273 29.2082L125.262 29.2195ZM125.37 23.5688V23.6773H125.568V23.5688H125.37ZM125.686 13.298H125.912V13.0991C125.76 13.1104 125.686 13.176 125.686 13.298ZM125.794 23.2433L125.686 23.6592L125.912 23.7677V23.2478L125.794 23.2433ZM125.686 27.1129V27.3389H125.794V27.1129H125.686ZM125.686 31.6335V31.7239H125.912V31.6335H125.686ZM125.686 32.2483V32.3568H125.912V32.2483H125.686ZM125.794 20.8519V20.9423H126.101V20.8519H125.794ZM125.993 15.8137L125.903 16.0398V16.1483H126.209V16.0398C126.215 16.0097 126.214 15.9786 126.206 15.9491C126.197 15.9196 126.182 15.8925 126.161 15.8702C126.14 15.8478 126.114 15.8308 126.085 15.8206C126.056 15.8104 126.025 15.8073 125.995 15.8115L125.993 15.8137ZM125.903 24.0864H126.209V23.779C126.115 23.7722 126.013 23.8739 125.912 24.0796L125.903 24.0864ZM125.993 13.1059L126.101 13.3048C126.226 13.231 126.369 13.1935 126.514 13.1963V12.8731C126.375 13.0101 126.19 13.0906 125.995 13.0991L125.993 13.1059ZM126.101 16.7721V17.0772C126.131 17.0834 126.162 17.0823 126.191 17.0739C126.221 17.0654 126.248 17.05 126.27 17.0289C126.292 17.0078 126.309 16.9817 126.319 16.9527C126.329 16.9237 126.331 16.8928 126.327 16.8625V16.7721H126.101ZM126.209 25.9828V26.0709H126.435V25.9828H126.209ZM126.318 15.3979V15.6239H126.426V15.3979H126.318ZM126.318 18.847V18.9555H126.514V18.847H126.318ZM126.426 32.1579V32.2483H126.622V32.1579H126.426ZM126.731 12.2561V12.7804H126.839L126.947 12.2561H126.731ZM126.731 24.1949V24.3011C126.732 24.3292 126.739 24.3568 126.751 24.3823C126.763 24.4077 126.78 24.4304 126.801 24.449C126.822 24.4676 126.847 24.4817 126.874 24.4905C126.9 24.4992 126.928 24.5025 126.956 24.5V24.1949H126.731ZM126.731 32.2483V32.5737H126.839V32.2483H126.731Z" fill="white"/>
<path d="M137.967 10.1721C141.261 10.1721 143.46 11.5026 144.566 14.1637C144.865 15.0417 145.011 15.9644 144.999 16.8919V33.5954C144.999 34.51 144.404 34.9681 143.214 34.9696H141.736C141.235 34.9552 140.74 34.8511 140.276 34.6622C139.76 34.7765 139.235 34.8431 138.707 34.8611H138.274C136.063 34.8611 134.283 33.7046 132.937 31.3916C132.516 30.2615 132.305 29.5638 132.305 29.2986V29.0726C132.304 28.7928 132.334 28.5137 132.395 28.2408L132.088 26.5614C132.216 26.0428 132.291 25.5128 132.314 24.9792L132.206 24.4548C132.206 22.0227 133.534 20.097 136.191 18.6775C136.64 18.5141 137.097 18.3753 137.561 18.2616C138.175 18.3339 138.558 18.3701 138.716 18.3701C139.761 18.3701 140.283 18.0507 140.285 17.4118V16.5822C139.996 15.4611 139.437 14.9013 138.608 14.9028H138.283C137.513 14.9028 137.026 15.6013 136.823 16.9981C136.716 17.1542 136.573 17.2827 136.407 17.3734C136.241 17.4641 136.055 17.5144 135.866 17.5202H133.027C132.475 17.2309 132.198 16.8821 132.197 16.4737C132.197 14.6926 133.175 12.9409 135.13 11.2186C136.572 10.5209 137.377 10.1713 137.545 10.1698L137.967 10.1721ZM133.765 26.9863V27.2937H133.873V26.9863H133.765ZM133.991 25.6143V25.8403H134.189V25.6143H133.991ZM135.038 26.9863V27.0948H135.264V26.9863H135.038ZM135.345 30.3451L135.255 30.5711H135.559C135.565 30.5403 135.564 30.5085 135.555 30.4785C135.546 30.4484 135.529 30.4211 135.507 30.3988C135.485 30.3765 135.458 30.3599 135.428 30.3506C135.398 30.3412 135.367 30.3393 135.336 30.3451H135.345ZM135.345 27.9243V28.0328H135.668V27.9243H135.345ZM135.571 13.3161V13.4246H135.796V13.3252L135.571 13.3161ZM135.679 21.8396V22.0386H135.787V21.8396H135.679ZM135.679 22.4703V22.6692C135.706 22.6729 135.733 22.6704 135.759 22.6617C135.785 22.653 135.808 22.6385 135.828 22.6192C135.847 22.5999 135.861 22.5765 135.87 22.5506C135.879 22.5248 135.881 22.4973 135.877 22.4703H135.679ZM136.311 30.6525L136.202 31.2854H136.618C136.518 30.8627 136.424 30.6525 136.293 30.6525H136.311ZM136.419 21.7312L136.311 22.2555C136.336 22.3979 136.401 22.4816 136.509 22.4816V21.7425L136.419 21.7312ZM136.509 13.6393V13.9467H136.618C136.726 13.9467 136.843 13.845 136.943 13.6393H136.509ZM136.735 20.8722V21.0983H136.961V20.8722H136.735ZM136.961 31.5996V32.0154H137.265V31.7894C137.265 31.6583 137.193 31.5905 137.051 31.5905L136.961 31.5996ZM137.051 24.1406V28.6612C137.29 29.5653 137.712 30.0332 138.313 30.0332H138.944C139.856 30.0332 140.313 29.401 140.314 28.1368C140.247 27.896 140.211 27.6477 140.206 27.3977L140.314 26.7648L140.206 26.3489C140.276 25.7192 140.313 25.0862 140.314 24.4525V24.344C139.977 23.3691 139.454 22.8816 138.746 22.8816H138.52C137.515 23.0067 137.013 23.4301 137.013 24.1519L137.051 24.1406ZM137.59 32.6461V32.8721H137.681V32.6461H137.59ZM138.006 21.087V21.5029H138.114V21.087H138.006ZM138.114 31.4843V31.5928C138.125 31.7261 138.193 31.7917 138.313 31.7917H138.421V31.4843H138.114ZM138.746 13.402V13.5082H138.944V13.402H138.746ZM138.746 13.6167V13.8428H138.944C138.906 13.7117 138.838 13.6393 138.707 13.6393L138.746 13.6167ZM139.357 20.5535V20.662L139.899 20.7683V20.3366H139.574C139.404 20.3742 139.319 20.4541 139.319 20.5761L139.357 20.5535ZM139.682 12.4617L139.574 12.6878V12.7782C139.6 12.9289 139.675 13.0042 139.8 13.0042H139.908V12.6968C139.915 12.6626 139.912 12.6272 139.9 12.5945C139.888 12.5618 139.867 12.533 139.84 12.5111C139.813 12.4893 139.78 12.4753 139.746 12.4706C139.711 12.4658 139.676 12.4706 139.644 12.4843L139.682 12.4617ZM139.574 20.9672V21.1932H140.206C140.212 21.1622 140.211 21.1301 140.201 21.0999C140.192 21.0696 140.176 21.0421 140.153 21.0197C140.131 20.9974 140.104 20.9809 140.073 20.9717C140.043 20.9625 140.011 20.961 139.98 20.9672H139.574ZM139.989 13.6167V13.8428H140.314C140.445 13.8428 140.513 13.7704 140.513 13.6167V13.5082L139.989 13.6167ZM139.989 32.7433V33.1591H140.098C140.129 33.1653 140.161 33.1638 140.191 33.1546C140.221 33.1454 140.249 33.1289 140.271 33.1066C140.293 33.0842 140.31 33.0567 140.319 33.0264C140.328 32.9962 140.329 32.9641 140.323 32.9331C140.323 32.7998 140.251 32.7342 140.098 32.7342L139.989 32.7433ZM140.098 20.1377V20.2281H140.423V20.1377H140.098ZM140.098 31.4775V31.7849H140.423C140.45 31.7887 140.477 31.7861 140.503 31.7774C140.529 31.7688 140.552 31.7542 140.571 31.7349C140.591 31.7157 140.605 31.6922 140.614 31.6663C140.622 31.6405 140.625 31.613 140.621 31.586C140.488 31.586 140.423 31.5137 140.423 31.36C140.314 31.4348 140.19 31.4829 140.059 31.5001L140.098 31.4775ZM140.513 19.1793V19.4053C140.513 19.5274 140.795 19.7022 141.359 19.9297V19.2019L140.513 19.1793ZM140.739 21.9255V22.0159C140.761 22.1606 140.833 22.242 140.964 22.242H141.163V21.9346L140.739 21.9255ZM140.739 31.1724V31.586C140.739 31.6142 140.746 31.642 140.758 31.6676C140.77 31.6931 140.787 31.716 140.808 31.7346C140.829 31.7533 140.854 31.7674 140.881 31.776C140.908 31.7847 140.936 31.7877 140.964 31.7849L141.488 31.6945C141.271 31.4669 141.163 31.2929 141.163 31.1724H140.739ZM140.847 12.9861V13.0946H141.061V12.9861H140.847ZM140.953 12.5702V12.8776H141.061V12.5702H140.953ZM141.061 29.9066V30.214H141.152V29.9066H141.061ZM141.152 30.8469V30.9554H141.377V30.8469H141.152ZM141.477 20.4496C141.469 20.6456 141.388 20.8317 141.251 20.9717V21.2972C141.251 21.3944 141.359 21.4961 141.576 21.6046C141.623 21.6046 141.727 21.5029 141.883 21.2972C141.711 21.0451 141.605 20.7535 141.576 20.4496H141.477ZM141.368 22.2375V22.3663H141.477C142.246 22.2216 142.63 22.0815 142.63 21.9504V21.7244H142.404C142.214 21.7148 142.025 21.7589 141.859 21.8516C141.693 21.9443 141.557 22.082 141.465 22.2488L141.368 22.2375ZM141.594 14.1456V14.2541H141.901V14.1456H141.594ZM141.594 18.0288V18.3543H141.684V18.0288H141.594ZM141.594 22.4522V22.7596H141.684V22.4522H141.594ZM141.594 29.172V29.2805H141.792V29.172H141.594ZM141.594 31.699V31.7894H141.792V31.699H141.594ZM141.792 24.7645V25.0719H141.901V24.7645H141.792ZM141.901 15.0859V15.1922H142.126V15.0859H141.901ZM142.226 16.042C142.178 16.2478 142.064 16.4321 141.901 16.5664L142.126 16.6749H142.235C142.366 16.6749 142.433 16.5664 142.433 16.3494C142.374 16.2565 142.337 16.1514 142.325 16.042H142.226ZM142 20.9717V21.2972C142.109 21.177 142.255 21.0974 142.415 21.0711V20.9627L142 20.9717ZM142.226 30.8514V31.2673H142.424V30.8514H142.226ZM142.316 30.327V30.553H142.424V30.327H142.316ZM142.316 31.482V31.8979H142.542V31.699C142.547 31.6634 142.543 31.627 142.529 31.5937C142.515 31.5605 142.492 31.5319 142.463 31.5112C142.433 31.4904 142.399 31.4784 142.363 31.4764C142.327 31.4745 142.291 31.4827 142.26 31.5001L142.316 31.482ZM142.542 17.8299L142.433 18.0288V18.3543C142.542 18.3543 142.659 18.2458 142.756 18.0288C142.691 17.9135 142.612 17.8457 142.476 17.8457L142.542 17.8299ZM142.433 19.6178V19.7082L142.955 19.6178V19.2923H142.846C142.527 19.4129 142.368 19.5274 142.368 19.6359L142.433 19.6178ZM142.542 23.9123V24.0208H142.955V23.9123H142.542ZM142.767 25.5917L142.542 26.0053H142.955V25.8087C142.889 25.6866 142.824 25.6143 142.691 25.6143L142.767 25.5917ZM142.542 28.2272V28.3176H143.388V28.243L142.542 28.2272ZM142.542 28.5346C142.564 28.6793 142.636 28.7606 142.767 28.7606V28.5346H142.542ZM142.542 28.8601V28.9505H142.767V28.8601H142.542ZM142.542 32.4178V32.5263H142.767V32.4178H142.542ZM142.648 22.972L142.846 23.0805C142.846 22.9359 143.095 22.8274 143.587 22.7551V22.529H143.388C142.939 22.5607 142.691 22.7053 142.582 22.9946L142.648 22.972ZM142.756 20.1377V20.3366H142.846V20.1377H142.756ZM142.846 17.1993V17.5067H142.955V17.1993H142.846ZM142.955 14.9978V15.1944H143.063V14.9978H142.955ZM142.955 30.5463V30.8537C142.986 30.8598 143.018 30.8583 143.048 30.8491C143.078 30.84 143.106 30.8235 143.128 30.8011C143.15 30.7787 143.167 30.7512 143.176 30.721C143.185 30.6907 143.187 30.6586 143.18 30.6276V30.3451C142.986 30.3692 142.889 30.4415 142.889 30.5621L142.955 30.5463ZM143.18 31.5928V31.7013H143.406V31.5928H143.18Z" fill="white"/>
<path d="M19.811 1.86061C23.3615 1.86061 26.8322 2.91511 29.7843 4.89077C32.7364 6.86642 35.0372 9.67449 36.3959 12.9599C37.7545 16.2452 38.1099 19.8603 37.4171 23.348C36.7242 26.8356 35.0143 30.0392 32.5036 32.5535C29.9929 35.0678 26.7941 36.78 23.3118 37.4735C19.8295 38.167 16.22 37.8107 12.9399 36.4496C9.65981 35.0885 6.85636 32.7837 4.8841 29.8268C2.91185 26.8699 1.85937 23.3936 1.85978 19.8376C1.86573 15.0713 3.75899 10.5019 7.12426 7.13182C10.4895 3.76171 15.052 1.86603 19.811 1.86061ZM19.811 1.0586e-07C15.893 -0.000405171 12.0628 1.16288 8.80495 3.34273C5.54708 5.52259 3.0078 8.6211 1.50826 12.2464C0.00871744 15.8717 -0.383733 19.861 0.380533 23.7097C1.1448 27.5584 3.03146 31.0937 5.8019 33.8684C8.57235 36.6432 12.1021 38.5328 15.9449 39.2982C19.7876 40.0637 23.7707 39.6706 27.3904 38.1687C31.0101 36.6669 34.1038 34.1237 36.2803 30.8607C38.4567 27.5978 39.6182 23.7617 39.6178 19.8376C39.6178 14.5764 37.531 9.53058 33.8165 5.8103C30.102 2.09003 25.0641 1.0586e-07 19.811 1.0586e-07Z" fill="white"/>
<mask id="mask0_16_15302" style="mask-type:alpha" maskUnits="userSpaceOnUse" x="1" y="1" width="38" height="38">
<ellipse cx="19.9521" cy="19.8397" rx="18.1067" ry="18.2373" fill="#C4C4C4"/>
</mask>
<g mask="url(#mask0_16_15302)">
<g style="mix-blend-mode:overlay">
<path d="M15.7763 39.0318C11.9913 39.0318 8.20632 39.0113 4.41926 39.0462C3.41675 39.0564 3.3124 38.5482 3.67044 37.8597C3.87983 37.4226 4.06226 36.973 4.21671 36.5134C4.3231 36.2245 4.27809 36.1671 3.97529 36.1446C3.82184 36.1343 3.6684 36.1446 3.51291 36.1446C3.20601 36.1446 2.89912 36.1569 2.58813 36.1446C1.9498 36.12 1.75339 35.7635 2.09915 35.243C2.3549 34.8577 2.64133 34.493 2.91753 34.1201C3.38401 33.4848 3.30217 33.577 2.97482 33.0299C2.69043 32.5586 2.39786 32.0935 2.11552 31.6201C1.78612 31.0648 1.83931 30.8681 2.40195 30.5792C2.92981 30.3087 3.45562 30.03 4.00189 29.7984C4.39062 29.6325 4.59521 29.4255 4.57271 28.9644C4.57194 28.5214 4.61028 28.0791 4.68728 27.6428C4.74866 27.1551 5.11079 26.9686 5.54249 27.2329C6.03147 27.528 6.4959 27.8641 6.97465 28.1919C7.17925 28.3272 7.27132 28.321 7.33883 28.0628C7.51683 27.3825 7.70915 26.7043 7.90965 26.0301C7.97512 25.8108 7.97308 25.6879 7.69074 25.7248C7.16902 25.7924 6.64321 25.8457 6.12149 25.9112C5.84325 25.9461 5.57932 25.9358 5.41769 25.6735C5.25606 25.4113 5.35017 25.1715 5.49952 24.9318C5.76754 24.5035 6.01101 24.0568 6.28312 23.6306C6.36592 23.5277 6.40794 23.3979 6.40115 23.2659C6.39435 23.134 6.33922 23.0092 6.24629 22.9154C5.85961 22.4359 5.49338 21.94 5.1333 21.438C4.72411 20.8745 4.77116 20.6901 5.33789 20.3315C5.90462 19.9729 6.45703 19.6307 7.0258 19.2966C7.1242 19.2503 7.2059 19.1746 7.25973 19.08C7.31356 18.9854 7.3369 18.8764 7.32656 18.768C7.30405 18.3049 7.30405 17.8418 7.30405 17.3787C7.30405 16.6553 7.59662 16.4791 8.26156 16.807C8.79351 17.0713 9.31523 17.3561 9.84308 17.6266C10.2911 17.8582 10.2993 17.8602 10.4998 17.4217C10.6369 17.1246 10.909 16.7639 10.8272 16.5283C10.7453 16.2926 10.3136 16.1758 10.0272 16.0221C9.65894 15.8172 9.28044 15.6451 8.91217 15.4463C8.33726 15.1328 8.32294 14.6882 8.88148 14.3644C9.39501 14.0673 9.90446 13.7763 10.4425 13.5038C10.5633 13.4533 10.664 13.3642 10.7288 13.2504C10.7935 13.1366 10.8188 13.0044 10.8006 12.8747C10.776 12.346 10.8006 11.8173 10.8006 11.2887C10.7948 11.1121 10.8023 10.9354 10.8231 10.76C10.8906 10.3215 11.0277 10.1821 11.4798 10.2047C12.1611 10.2374 12.8424 10.2805 13.5156 10.3809C13.6514 10.4183 13.7959 10.4092 13.926 10.355C14.0561 10.3008 14.1644 10.2046 14.2337 10.0817C14.4649 9.73336 14.7145 9.3973 14.962 9.05715C15.4347 8.41372 15.7948 8.44241 16.1405 9.19239C16.3553 9.64935 16.564 10.1104 16.7543 10.5797C16.8627 10.8481 16.9978 10.887 17.2597 10.7682C18.5054 10.2086 19.8346 9.85827 21.194 9.73131C24.1074 9.45673 26.9084 9.73131 29.3778 11.5202C31.2435 12.8479 32.596 14.7784 33.2078 16.9873C33.3122 17.3459 33.4124 17.7065 33.5065 18.0672C33.7296 18.9401 33.4042 19.6942 32.5838 20.0016C32.4319 20.0555 32.2939 20.1427 32.1799 20.2568C32.0659 20.371 31.9789 20.5092 31.925 20.6614C31.7839 20.9851 31.6365 21.3048 31.4708 21.6163C31.2048 22.1224 30.9491 22.231 30.542 21.8622C30.0428 21.4175 29.6172 21.3786 29.1098 21.815C29.0396 21.8862 28.9559 21.9427 28.8638 21.9813C28.7716 22.0199 28.6726 22.0397 28.5727 22.0397C28.4728 22.0397 28.3739 22.0199 28.2817 21.9813C28.1895 21.9427 28.1059 21.8862 28.0357 21.815C27.4751 21.315 26.9063 21.354 26.3069 21.7126C26.2311 21.7577 26.1432 21.7802 26.0675 21.8253C25.5989 22.0999 25.1652 22.1163 24.7622 21.69C24.5576 21.4728 24.3305 21.4114 24.1075 21.69C24.0198 21.7898 23.9186 21.8768 23.8067 21.9482C23.51 22.1634 23.3095 22.19 23.0476 21.9257C22.7858 21.6613 22.4748 21.5466 22.1086 21.7023C21.7423 21.8581 21.4334 21.7331 21.1633 21.4544C20.8933 21.1757 20.6232 20.936 20.3552 20.6757C20.0781 20.369 19.714 20.1544 19.3117 20.061C18.4402 19.8807 17.8796 18.7167 18.1967 17.8889C18.23 17.7826 18.2964 17.6898 18.3863 17.6241C18.4762 17.5585 18.5847 17.5234 18.6959 17.5242C18.8179 17.5243 18.9357 17.5692 19.0269 17.6504C19.1181 17.7315 19.1765 17.8434 19.191 17.9647C19.2006 18.0744 19.204 18.1846 19.2013 18.2946C19.2319 18.9729 19.3445 19.0774 20.0442 19.0835C20.3306 19.0835 20.6171 19.0835 20.9035 19.0835C24.4675 19.0835 28.0336 19.0692 31.5997 19.0835C32.4979 19.0835 32.635 18.77 32.4304 18.0159C32.0048 16.4402 31.391 14.9771 30.2883 13.7517C28.8868 12.1923 27.1764 11.1514 25.0956 10.8501C22.2722 10.4403 19.5163 10.6924 16.9487 12.0468C13.9022 13.6533 11.8338 16.098 10.8579 19.4237C9.81444 23.0138 8.84465 26.6264 7.78894 30.2124C7.42886 31.4418 6.89281 32.5996 6.42429 33.786C5.95577 34.9725 5.4586 36.1958 4.97576 37.4007C4.74866 37.9683 4.75071 37.9745 5.34608 37.9745H10.2993H26.2127C26.9084 37.9745 26.9186 37.9745 26.7304 37.3228C26.121 35.2508 25.8623 33.0912 25.9652 30.9337C26.0143 29.9685 26.1698 29.0095 26.2782 28.0485C26.3104 27.6761 26.3644 27.306 26.4398 26.9399C26.5541 26.3504 26.8737 25.8207 27.3418 25.4453C27.8099 25.07 28.3959 24.8735 28.9952 24.8908C29.4576 24.8908 29.922 24.9031 30.3824 24.8785C30.689 24.8683 30.9932 24.8215 31.2887 24.7391C31.4716 24.6734 31.6301 24.5533 31.7429 24.3949C31.9475 24.1101 31.8657 23.9625 31.5117 23.9625C29.6704 23.9625 27.8147 23.9625 25.9652 23.9625H21.5398C21.3854 23.9698 21.2307 23.9636 21.0774 23.9441C20.9529 23.9283 20.8384 23.8675 20.7554 23.7732C20.6724 23.6789 20.6266 23.5575 20.6266 23.4318C20.6266 23.3061 20.6724 23.1847 20.7554 23.0904C20.8384 22.9961 20.9529 22.9353 21.0774 22.9195C21.2084 22.9034 21.3405 22.8986 21.4723 22.9052H32.1112C32.2217 22.9052 32.3322 22.9052 32.4426 22.9052C32.8334 22.9359 33.0012 23.0875 33.0564 23.4584C33.1052 23.8764 33.0299 24.2995 32.84 24.6749C32.65 25.0503 32.3538 25.3613 31.9885 25.569C31.5168 25.812 30.9925 25.9344 30.4622 25.9256C29.9773 25.9256 29.4924 25.9256 29.0095 25.9256C28.1912 25.944 27.5365 26.4461 27.4383 27.2493C27.2582 28.7554 26.9882 30.2533 26.9943 31.782C26.9887 33.7449 27.2982 35.696 27.9109 37.5605C27.9523 37.7314 28.0056 37.8992 28.0705 38.0626C28.3896 38.6937 27.9866 39.0462 27.3441 39.04C23.4814 39.0175 19.6227 39.0318 15.7763 39.0318Z" fill="white"/>
</g>
<g style="mix-blend-mode:overlay">
<path d="M23.2482 12.7579C24.0522 12.9362 25.0159 13.0714 25.9283 13.3727C27.6674 13.9464 28.6781 15.262 29.2326 16.9607C29.2646 17.0259 29.2823 17.0973 29.2844 17.1699C29.2866 17.2426 29.2731 17.3148 29.245 17.3818C29.2169 17.4488 29.1747 17.509 29.1214 17.5583C29.0681 17.6076 29.0048 17.6449 28.9359 17.6676C28.672 17.7742 28.4428 17.6676 28.2648 17.3029C28.1666 17.1082 28.1052 16.8931 28.0132 16.6882C27.8884 16.4177 27.8474 16.4074 27.6899 16.6451C27.413 17.0997 26.9803 17.4377 26.4726 17.5959C25.6542 17.8357 24.9524 17.6062 24.3591 17.0283C23.7658 16.4505 23.5796 15.6759 23.7658 14.846C23.8148 14.6774 23.877 14.5129 23.952 14.3542C24.0768 14.0448 24.0604 14.0017 23.7249 13.9259C23.4487 13.8624 23.1622 13.8337 22.886 13.762C22.8201 13.7544 22.7565 13.7327 22.6995 13.6985C22.6426 13.6643 22.5936 13.6183 22.5558 13.5636C22.5181 13.5089 22.4924 13.4467 22.4805 13.3813C22.4687 13.3159 22.4709 13.2487 22.4871 13.1841C22.53 12.8891 22.7694 12.7149 23.2482 12.7579ZM25.8833 16.8295C26.1649 16.8381 26.4386 16.7361 26.6462 16.5454C26.8538 16.3546 26.9788 16.0902 26.9945 15.8086C27.0102 15.5269 26.9155 15.2502 26.7305 15.0374C26.5455 14.8247 26.2848 14.6928 26.004 14.6698C25.8603 14.658 25.7157 14.6751 25.5787 14.7202C25.4417 14.7653 25.3151 14.8374 25.2064 14.9323C25.0976 15.0271 25.009 15.1428 24.9456 15.2726C24.8822 15.4023 24.8454 15.5434 24.8374 15.6876C24.8293 15.8318 24.8501 15.9762 24.8987 16.1122C24.9472 16.2482 25.0224 16.3731 25.1199 16.4795C25.2174 16.5859 25.3352 16.6717 25.4663 16.7319C25.5974 16.792 25.7392 16.8252 25.8833 16.8295Z" fill="white"/>
</g>
</g>
</svg>
