<svg width="31" height="24" viewBox="0 0 31 24" fill="none" xmlns="http://www.w3.org/2000/svg">
<path d="M25.9372 1.93589C23.9844 1.03985 21.8903 0.379689 19.7008 0.00158609C19.6609 -0.00571117 19.621 0.0125251 19.6005 0.0489984C19.3312 0.528007 19.0329 1.15291 18.824 1.64409C16.469 1.29152 14.1261 1.29152 11.8194 1.64409C11.6105 1.142 11.3013 0.528007 11.0308 0.0489984C11.0102 0.013742 10.9704 -0.00449424 10.9305 0.00158609C8.74221 0.37848 6.6481 1.03864 4.69407 1.93589C4.67715 1.94318 4.66265 1.95535 4.65303 1.97115C0.680941 7.90536 -0.40718 13.6937 0.126616 19.4103C0.129031 19.4383 0.144731 19.465 0.166469 19.482C2.78714 21.4066 5.32571 22.575 7.81713 23.3494C7.85701 23.3616 7.89925 23.347 7.92463 23.3141C8.51398 22.5093 9.03933 21.6607 9.48976 20.7683C9.51635 20.716 9.49097 20.654 9.43664 20.6334C8.60335 20.3173 7.80988 19.9319 7.04663 19.4942C6.98625 19.4589 6.98142 19.3726 7.03696 19.3313C7.19758 19.2109 7.35824 19.0857 7.51161 18.9592C7.53935 18.9361 7.57802 18.9313 7.61064 18.9458C12.6249 21.2352 18.0535 21.2352 23.0086 18.9458C23.0412 18.9301 23.0798 18.9349 23.1088 18.958C23.2622 19.0845 23.4228 19.2109 23.5847 19.3313C23.6402 19.3726 23.6366 19.4589 23.5762 19.4942C22.8129 19.9404 22.0195 20.3173 21.185 20.6322C21.1306 20.6528 21.1065 20.716 21.1331 20.7683C21.5932 21.6595 22.1185 22.5081 22.697 23.3129C22.7212 23.347 22.7646 23.3616 22.8045 23.3494C25.308 22.575 27.8465 21.4066 30.4672 19.482C30.4902 19.465 30.5047 19.4395 30.5071 19.4115C31.1459 12.8025 29.437 7.06162 25.977 1.97236C25.9686 1.95535 25.9541 1.94318 25.9372 1.93589ZM10.2386 15.9295C8.72892 15.9295 7.48502 14.5435 7.48502 12.8414C7.48502 11.1393 8.7048 9.75337 10.2386 9.75337C11.7844 9.75337 13.0162 11.1515 12.9921 12.8414C12.9921 14.5435 11.7723 15.9295 10.2386 15.9295ZM20.4193 15.9295C18.9097 15.9295 17.6658 14.5435 17.6658 12.8414C17.6658 11.1393 18.8855 9.75337 20.4193 9.75337C21.9651 9.75337 23.197 11.1515 23.1728 12.8414C23.1728 14.5435 21.9651 15.9295 20.4193 15.9295Z" fill="white"/>
</svg>
